<svg id="Layer_1" data-name="Layer 1" xmlns="http://www.w3.org/2000/svg" width="16.9mm" height="16.9mm" viewBox="0 0 48 48">
  <defs>
    <style>
      .cls-1 {
        fill: #01005a;
      }

      .cls-2 {
        fill: #99f;
      }
    </style>
  </defs>
  <g>
    <rect class="cls-1" width="48" height="48" rx="8.5"/>
    <path class="cls-2" d="M19.3,13.4H13.5L6.2,34.6h5.3l1.4-5h7l2,5h5.4ZM14.1,25.6l2.3-7.9,2.5,7.9Z" transform="translate(0 0)"/>
    <path class="cls-2" d="M35.6,26.8h6.1a6.4,6.4,0,0,0,0-2.4h0V24h0a7.3,7.3,0,0,0-2.4-4.7,6.9,6.9,0,0,0-4.7-1.6,7.7,7.7,0,0,0-5.1,2.4,7.4,7.4,0,0,0-1.7,2.5,8,8,0,0,0-.6,3.8,8.9,8.9,0,0,0,1.3,4.4,8.5,8.5,0,0,0,6.1,3.6,9.5,9.5,0,0,0,5.6-1V30a10.6,10.6,0,0,1-4.4.4,5.3,5.3,0,0,1-3.2-1.2,4.5,4.5,0,0,1-1.1-2.4h4Zm-1-5.8a3,3,0,0,1,3,3h-6A3.1,3.1,0,0,1,34.6,21Z" transform="translate(0 0)"/>
  </g>
</svg>
