<svg xmlns="http://www.w3.org/2000/svg" width="48" height="48" viewBox="0 0 48 48">
  <g id="Assets">
    <g>
      <g>
        <rect x="0.79" y="1.4" width="46.41" height="45.19" rx="8.32" style="fill: #11005d"/>
        <path d="M38.89,47.39H9.11A9.13,9.13,0,0,1,0,38.27V9.73A9.13,9.13,0,0,1,9.11.61H38.89A9.13,9.13,0,0,1,48,9.73V38.27A9.13,9.13,0,0,1,38.89,47.39ZM9.11,2.2A7.53,7.53,0,0,0,1.59,9.73V38.27A7.53,7.53,0,0,0,9.11,45.8H38.89a7.53,7.53,0,0,0,7.52-7.53V9.73A7.53,7.53,0,0,0,38.89,2.2Z" style="fill: #9d90fa"/>
      </g>
      <g>
        <path d="M16.05,13.47h2.26c.36,0,.36,0,.47.32L25.64,33a.57.57,0,0,1,0,.14c0,.2,0,.27-.22.27H21.65c-.35,0-.37,0-.48-.34-.48-1.4-1-2.8-1.44-4.2a.29.29,0,0,0-.32-.24H12.77a.26.26,0,0,0-.3.22c-.44,1.39-.89,2.77-1.34,4.15-.12.36-.17.4-.54.4H7.34c-.45,0-.49-.07-.35-.48l4.31-12.3c.64-1.83,1.28-3.66,1.89-5.5a6.37,6.37,0,0,0,.2-1.32c0-.31,0-.32.33-.32ZM13.69,24.84h4.8c-.83-2.64-1.64-5.27-2.44-7.83Z" style="fill: #99f"/>
        <path d="M39.52,26.35h.83s0-1.59,0-2.12a9.18,9.18,0,0,0-.47-2.6,5.68,5.68,0,0,0-2.5-3.1,6.41,6.41,0,0,0-2.08-.75,7.11,7.11,0,0,0-7.08,2.35,10.22,10.22,0,0,0-1.68,6.19,7.14,7.14,0,0,0,7,7.05A13.43,13.43,0,0,0,39,32.53V29.22s-7.73,2.35-8.23-2.89h8.75ZM33.6,20.7a2.84,2.84,0,0,1,2.84,2.83H30.77A2.83,2.83,0,0,1,33.6,20.7Z" style="fill: #99f"/>
      </g>
    </g>
  </g>
</svg>
