<svg id="Layer_1" data-name="Layer 1" xmlns="http://www.w3.org/2000/svg" width="16.9mm" height="16.5mm" viewBox="0 0 48 46.8">
  <defs>
    <style>
      .cls-1 {
        fill: #00005b;
      }

      .cls-2 {
        fill: #99f;
      }
    </style>
  </defs>
  <g>
    <path class="cls-1" d="M8.5.6h31A8.5,8.5,0,0,1,48,9.1V38.9a8.5,8.5,0,0,1-8.5,8.5H8.5A8.5,8.5,0,0,1,0,38.9V9.1A8.5,8.5,0,0,1,8.5.6Z" transform="translate(0 -0.6)"/>
    <path class="cls-2" d="M18.5,12.9l-.2-.2H13.1a.2.2,0,0,0-.2.2,5.3,5.3,0,0,1-.1,1.3c-.1.3-.2.4-.2.6L6.1,33.3c0,.2,0,.4.2.4h3.9a.3.3,0,0,0,.3-.3l1.6-4.7h7.4l1.6,4.8.3.2h4.2c.2,0,.3-.1.2-.3ZM13.2,24.7c.3-.8.6-1.8.9-2.8l.9-3a23.3,23.3,0,0,0,.7-2.5h0c.2.4.3,1,.5,1.5a12.1,12.1,0,0,0,.5,1.8l.6,1.8c.2.6.3,1.2.5,1.8a12.1,12.1,0,0,1,.5,1.4Zm28.4-4a4.6,4.6,0,0,0-3-2.9,6.3,6.3,0,0,0-1.9-.3,6.7,6.7,0,0,0-2.4.4,5.5,5.5,0,0,0-2.1,1.2,6.4,6.4,0,0,1-.2-.7.6.6,0,0,0-.1-.4.3.3,0,0,0-.1-.2H28V19a6.2,6.2,0,0,0,.1,1.3V33.4h0c0,.1.1.2.3.2h3.8c.1,0,.2-.1.2-.3v-11l1.2-.8a4,4,0,0,1,1.5-.3,2.3,2.3,0,0,1,1.4.4,2,2,0,0,1,.8,1,3.3,3.3,0,0,1,.4,1.7v9h0c0,.1.2.2.3.2h3.8c.2,0,.2-.1.2-.3V23.9A9.6,9.6,0,0,0,41.6,20.7Z" transform="translate(0 -0.6)"/>
  </g>
</svg>
