<svg xmlns="http://www.w3.org/2000/svg" width="48" height="48" viewBox="0 0 48 48">
  <g id="Assets">
    <g>
      <g>
        <rect x="0.79" y="1.33" width="46.41" height="45.34" rx="8.34" style="fill: #310000"/>
        <path d="M38.87,47.46H9.13A9.13,9.13,0,0,1,0,38.33V9.67A9.13,9.13,0,0,1,9.13.54H38.87A9.13,9.13,0,0,1,48,9.67V38.33A9.13,9.13,0,0,1,38.87,47.46ZM9.13,2.12A7.55,7.55,0,0,0,1.59,9.67V38.33a7.55,7.55,0,0,0,7.54,7.55H38.87a7.55,7.55,0,0,0,7.54-7.55V9.67a7.55,7.55,0,0,0-7.54-7.55Z" style="fill: #eea808"/>
      </g>
      <g>
        <rect x="32.49" y="19.49" width="4.25" height="15.52" style="fill: #ff9a00"/>
        <circle cx="34.61" cy="15.43" r="2.44" style="fill: #ff9a00"/>
        <path d="M23.29,14.56H17.82a7.93,7.93,0,0,1-.47,2.69L11,35h4.48L17,30.11l7.18-.05L25.86,35H30.6ZM18.22,26.11l2.33-7.94L23,26.11Z" style="fill: #ff9a00"/>
      </g>
    </g>
  </g>
</svg>
