<svg id="Layer_1" data-name="Layer 1" xmlns="http://www.w3.org/2000/svg" width="16.9mm" height="16.9mm" viewBox="0 0 48 48">
  <defs>
    <style>
      .cls-1 {
        fill: #43081f;
      }

      .cls-2 {
        fill: #ec4869;
      }
    </style>
  </defs>
  <g>
    <rect class="cls-1" width="48" height="48" rx="8.5"/>
    <g>
      <rect class="cls-2" x="12.6" y="14.3" width="4.8" height="21.29"/>
      <path class="cls-2" d="M30.7,12.2v6.7H28.2a7.4,7.4,0,0,0-7.4,7.4v2.1a7.4,7.4,0,0,0,7.5,7.4h1.2a22.7,22.7,0,0,0,5.9-1.3V12.2Zm0,19.4a6.5,6.5,0,0,1-1.6.3H29a3.5,3.5,0,0,1-3.5-3.5V26.1A3.6,3.6,0,0,1,29,22.5h1.7Z" transform="translate(0 0)"/>
    </g>
  </g>
</svg>
