<svg xmlns="http://www.w3.org/2000/svg" width="48" height="48" viewBox="0 0 48 48">
  <g id="Assets">
    <g>
      <g>
        <rect x="0.79" y="1.33" width="46.41" height="45.34" rx="8.34" style="fill: #49001c"/>
        <path d="M38.87,47.46H9.13A9.14,9.14,0,0,1,0,38.33V9.67A9.14,9.14,0,0,1,9.13.54H38.87A9.13,9.13,0,0,1,48,9.67V38.33A9.13,9.13,0,0,1,38.87,47.46ZM9.13,2.12A7.55,7.55,0,0,0,1.59,9.67V38.33a7.55,7.55,0,0,0,7.54,7.55H38.87a7.55,7.55,0,0,0,7.54-7.55V9.67a7.55,7.55,0,0,0-7.54-7.55Z" style="fill: #ff0a61"/>
      </g>
      <g>
        <rect x="13.07" y="14.65" width="4.44" height="20.55" style="fill: #e94869"/>
        <path d="M30.49,12.8v6.29H27.78a6.9,6.9,0,0,0-6.9,6.9v2.32a6.9,6.9,0,0,0,6.9,6.89h2.71s4.39-.34,4.44-1.66V12.8Zm0,18.74H28.83a3.76,3.76,0,0,1-3.76-3.76V26.52a3.76,3.76,0,0,1,3.76-3.76h1.66Z" style="fill: #e94869"/>
      </g>
    </g>
  </g>
</svg>
