<svg xmlns="http://www.w3.org/2000/svg" width="48" height="48" viewBox="0 0 48 48">
  <g id="Assets">
    <g>
      <g>
        <rect x="0.79" y="1.33" width="46.41" height="45.34" rx="8.34" style="fill: #001d33"/>
        <path d="M38.87,47.46H9.13A9.14,9.14,0,0,1,0,38.33V9.67A9.14,9.14,0,0,1,9.13.54H38.87A9.14,9.14,0,0,1,48,9.67V38.33A9.14,9.14,0,0,1,38.87,47.46ZM9.13,2.12A7.55,7.55,0,0,0,1.59,9.67V38.33a7.55,7.55,0,0,0,7.54,7.55H38.87a7.55,7.55,0,0,0,7.54-7.55V9.67a7.55,7.55,0,0,0-7.54-7.55Z" style="fill: #00a7ff"/>
      </g>
      <path d="M19,13H11.43V33.1h4.25V26.81H19A6.93,6.93,0,0,0,19,13Zm1.77,9.24a3.27,3.27,0,0,1-2.31,1H15.68V16.61h2.78a3.27,3.27,0,0,1,2.31,5.58Z" style="fill: #30a8ff"/>
      <path d="M39.18,28.58a4.81,4.81,0,0,1-1.61,3.51,6.91,6.91,0,0,1-4.12,1.55l-.52,0a11.12,11.12,0,0,1-4.82-1l-.05,0V29.08a10.08,10.08,0,0,0,1.32.4,10.46,10.46,0,0,0,4.36.59,1.57,1.57,0,0,0,.84-.31c.87-.72,0-1.62-.72-2s-1.61-.61-2.39-.95a7.22,7.22,0,0,1-2.06-1.29,4.5,4.5,0,0,1,.12-6.69,6.57,6.57,0,0,1,4.15-1.4,10.63,10.63,0,0,1,4.49.79.27.27,0,0,1,.15.1.36.36,0,0,1,0,.15c0,1.21,0,2.42,0,3.63a3.12,3.12,0,0,0-.82-.4c-.3-.13-.61-.24-.91-.34A6.15,6.15,0,0,0,33,21.1a.94.94,0,0,0-.72.89c0,.71.7,1.05,1.26,1.3s1.45.52,2.15.84C37.49,25,39.18,26.42,39.18,28.58Z" style="fill: #30a8ff"/>
    </g>
  </g>
</svg>
