<svg id="Layer_1" data-name="Layer 1" xmlns="http://www.w3.org/2000/svg" width="16.9mm" height="16.9mm" viewBox="0 0 48 48">
  <defs>
    <style>
      .cls-1 {
        fill: #011e36;
      }

      .cls-2 {
        fill: #2cabfe;
      }
    </style>
  </defs>
  <g>
    <rect class="cls-1" width="48" height="48" rx="8.5"/>
    <g>
      <path class="cls-2" d="M9.4,13.1V34.6H14V27.8h3.4a7.4,7.4,0,0,0,7.4-7.3h0a7.4,7.4,0,0,0-7.4-7.4Zm7.3,10.7H14V17.1h2.7a3.4,3.4,0,0,1,3.4,3.4h0A3.4,3.4,0,0,1,16.7,23.8Z" transform="translate(0 0)"/>
      <path class="cls-2" d="M37.6,18.6v4.3a9.5,9.5,0,0,0-3.3-1.2c-.8-.1-2.2-.2-2.7.5a1.2,1.2,0,0,0-.2.7c.1.9,1.5,1.2,2.9,1.9s3.5,1.6,4.1,3.3a4.8,4.8,0,0,1-.8,3.9c-1.4,2.3-4.1,2.7-5.4,2.8a10.2,10.2,0,0,1-5.4-.7v-4a26,26,0,0,0,4.7.9c.9.1,1.9.1,2.2-.4a1.3,1.3,0,0,0,.1-.5c-.1-.7-.9-1.1-1.7-1.5L29,27.1a5.2,5.2,0,0,1-2.1-2.7,4.2,4.2,0,0,1,0-3.2,4.8,4.8,0,0,1,2-2.2C32.1,16.9,36.9,18.4,37.6,18.6Z" transform="translate(0 0)"/>
    </g>
  </g>
</svg>
