<svg id="Layer_1" data-name="Layer 1" xmlns="http://www.w3.org/2000/svg" width="16.9mm" height="16.9mm" viewBox="0 0 48 48">
  <defs>
    <style>
      .cls-1 {
        fill: #02005d;
      }

      .cls-2 {
        fill: #9897fb;
      }
    </style>
  </defs>
  <g>
    <rect class="cls-1" width="48" height="48" rx="8.5"/>
    <g>
      <path class="cls-2" d="M10,13.2V34.8h4.6V28H18a7.4,7.4,0,0,0,7.4-7.4h0A7.4,7.4,0,0,0,18,13.2ZM17.3,24H14.6V17.2h2.7a3.4,3.4,0,0,1,3.4,3.4h0A3.4,3.4,0,0,1,17.3,24Z" transform="translate(0 0)"/>
      <path class="cls-2" d="M34.6,18.7a6.2,6.2,0,0,0-2.4,1.7V18.5H28.1V34.8h4.1V24.9a5.6,5.6,0,0,1,2.9-2,4.8,4.8,0,0,1,2.9-.1V18A8.8,8.8,0,0,0,34.6,18.7Z" transform="translate(0 0)"/>
    </g>
  </g>
</svg>
