<svg xmlns="http://www.w3.org/2000/svg" width="48" height="48" viewBox="0 0 48 48">
  <g id="Assets">
    <g>
      <g>
        <rect x="0.79" y="1.33" width="46.41" height="45.34" rx="8.34" style="fill: #11005d"/>
        <path d="M38.87,47.46H9.13A9.14,9.14,0,0,1,0,38.33V9.67A9.14,9.14,0,0,1,9.13.54H38.87A9.14,9.14,0,0,1,48,9.67V38.33A9.14,9.14,0,0,1,38.87,47.46ZM9.13,2.12A7.55,7.55,0,0,0,1.59,9.67V38.33a7.55,7.55,0,0,0,7.54,7.55H38.87a7.55,7.55,0,0,0,7.54-7.55V9.67a7.55,7.55,0,0,0-7.54-7.55Z" style="fill: #9d90fa"/>
      </g>
      <g>
        <path d="M18.23,13.92H10.66V34.08h4.25v-6.3h3.32a6.93,6.93,0,0,0,0-13.86ZM20,23.16a3.22,3.22,0,0,1-2.31,1H14.91V17.58h2.78A3.27,3.27,0,0,1,21,20.85,3.22,3.22,0,0,1,20,23.16Z" style="fill: #9a99ff"/>
        <path d="M31.94,20.61V18.66H27.89V34.08h4.05V25.3a2.25,2.25,0,0,1,1-1.84,8.44,8.44,0,0,1,4.44-1V18.24A7.19,7.19,0,0,0,31.94,20.61Z" style="fill: #9a99ff"/>
      </g>
    </g>
  </g>
</svg>
