<?xml version="1.0" encoding="utf-8"?>
<!-- Generator: Adobe Illustrator 25.0.1, SVG Export Plug-In . SVG Version: 6.00 Build 0)  -->
<svg version="1.1" id="Layer_1" xmlns="http://www.w3.org/2000/svg" xmlns:xlink="http://www.w3.org/1999/xlink" x="0px" y="0px"
	 viewBox="0 0 173 42" enable-background="new 0 0 173 42" xml:space="preserve">
<path fill="#FFFCFC" d="M5.7,30.7c-0.2,0-0.5-0.2-0.8-0.4c-2.2-2.2,0.6-4.7,4-6.2v-4.2c0.8,0.5,1.2,0.5,1.2,0.6l2.5-2.5l-0.8-2.2
	c7.4-2.6,10.4-3.6,16.5-4.6l-1.1-1l1.8-1c4.1,1.3,7.9,1.7,7.3,5.1c0.2-2.3-2.7-3.2-7.1-4.4l-0.8,0.5l1.6,1.3
	c-7.3,1.2-11.7,2.7-17,4.5l0.7,1.9L11,20.8c0.4,0.1,5.1,1.7,9.9-1.7c0,0,0.1-0.1,0.1-0.1c-0.1-0.2-0.5-0.5-0.9-0.8
	c1.4,0.1,2.3,1.3,2.2,2.6h-0.7c0-0.4,0-0.9-0.2-1.2c-3.7,2.7-8.1,3.1-11.8,1.8v3.2c-1.8,0.6-5,2.6-5,4.5C4.8,30.1,5.3,30.4,5.7,30.7
	"/>
<g opacity="0.7">
	<path fill="#FFFCFC" d="M49.8,8.4l-6.1,11.9h4l1-2.1h6.2l0.9,2.1h4.4L54.2,8.4H49.8z M49.8,15.6l2-4.3l1.9,4.3H49.8z"/>
	<rect x="61" y="8.4" fill="#FFFCFC" width="3.8" height="11.9"/>
	<rect x="66.7" y="12" fill="#FFFCFC" width="3.8" height="8.3"/>
	<rect x="66.7" y="8.4" fill="#FFFCFC" width="3.8" height="2.4"/>
	<path fill="#FFFCFC" d="M172.6,13.9c-0.3-0.7-0.7-1.2-1.3-1.6c-0.6-0.4-1.2-0.6-1.9-0.6c-0.6,0-1,0.1-1.4,0.3
		c-0.4,0.2-0.7,0.5-1.1,1v-1.1h-1.3v11.8h1.5v-4.2c0.2,0.3,0.6,0.6,0.9,0.8c0.4,0.2,0.8,0.3,1.3,0.3c0.7,0,1.3-0.2,1.9-0.6
		c0.6-0.4,1.1-0.9,1.4-1.6c0.3-0.7,0.5-1.5,0.5-2.4C173,15.3,172.9,14.5,172.6,13.9z M170.8,18.6c-0.5,0.5-1,0.8-1.6,0.8
		c-0.6,0-1.2-0.3-1.6-0.8c-0.4-0.5-0.7-1.3-0.7-2.4l0,0c0-1.1,0.2-1.9,0.7-2.5c0.5-0.6,1-0.9,1.6-0.9c0.6,0,1.2,0.3,1.6,0.8
		c0.4,0.5,0.7,1.4,0.7,2.4C171.5,17.2,171.3,18.1,170.8,18.6z"/>
	<path fill="#FFFCFC" d="M102,19.7c0-0.2,0-0.5,0-0.7c0.4,0.5,0.9,0.9,1.5,1.1c0.6,0.3,1.2,0.4,1.9,0.4c1.3,0,2.3-0.4,3.1-1.1
		c0.8-0.8,1.2-1.8,1.2-3c0-1.4-0.4-2.5-1.2-3.3c-0.8-0.8-1.8-1.2-3.1-1.2c-0.7,0-1.3,0.1-1.8,0.4c-0.6,0.2-1.1,0.6-1.5,1.1V8.4h-3.8
		v10.5c0,0.3,0,0.6,0,0.8c0,0.2-0.1,0.4-0.1,0.6h3.8C101.9,20.1,101.9,19.9,102,19.7z M102.5,14.4c0.3-0.4,0.8-0.6,1.4-0.6
		c0.6,0,1.1,0.2,1.4,0.6c0.3,0.4,0.5,1,0.5,1.7h0c0,0.7-0.2,1.3-0.5,1.7c-0.4,0.4-0.8,0.6-1.4,0.6c-0.6,0-1.1-0.2-1.4-0.6
		c-0.3-0.4-0.5-1-0.5-1.7C102,15.4,102.1,14.8,102.5,14.4z"/>
	<path fill="#FFFCFC" d="M161.2,16.3c0,0.7-0.1,1.3-0.2,1.7c-0.2,0.4-0.4,0.7-0.8,0.9c-0.4,0.2-0.8,0.3-1.2,0.3
		c-0.4,0-0.8-0.1-1.1-0.3c-0.3-0.2-0.5-0.5-0.6-0.9c-0.1-0.3-0.1-0.8-0.1-1.5v-4.7h-1.5V17c0,0.6,0,1.1,0.1,1.3
		c0.1,0.4,0.2,0.8,0.4,1.1c0.2,0.3,0.5,0.5,1,0.7c0.4,0.2,0.9,0.3,1.4,0.3c1.1,0,2-0.5,2.7-1.5v1.3h1.3v-8.5h-1.5V16.3z"/>
	<path fill="#FFFCFC" d="M143.1,12c-0.3,0.2-0.6,0.6-0.9,1.2v-1.3h-1.3v8.5l0,0h1.5V16c0-0.6,0.1-1.2,0.2-1.7
		c0.1-0.3,0.3-0.6,0.5-0.8c0.3-0.2,0.5-0.3,0.9-0.3c0.4,0,0.7,0.1,1.1,0.3l0.5-1.3c-0.5-0.3-1-0.5-1.5-0.5
		C143.7,11.7,143.4,11.8,143.1,12z"/>
	<path fill="#FFFCFC" d="M149.8,11.7c-1.1,0-2,0.3-2.7,0.9c-0.9,0.8-1.3,1.9-1.3,3.5l0,0c0,1.4,0.4,2.5,1.1,3.3
		c0.7,0.8,1.7,1.1,2.9,1.1c0.7,0,1.4-0.2,2.1-0.5c0.6-0.3,1.1-0.8,1.4-1.5c0.3-0.6,0.5-1.5,0.5-2.6c0-1.4-0.4-2.4-1.1-3.2
		C152,12.1,151,11.7,149.8,11.7z M151.6,18.6c-0.5,0.5-1.1,0.8-1.8,0.8c-0.7,0-1.3-0.3-1.8-0.8c-0.5-0.5-0.7-1.4-0.7-2.5
		c0-1.1,0.2-1.9,0.7-2.5c0.5-0.5,1.1-0.8,1.8-0.8c0.7,0,1.3,0.3,1.8,0.8c0.5,0.5,0.7,1.3,0.7,2.4C152.3,17.2,152.1,18.1,151.6,18.6z
		"/>
	<path fill="#FFFCFC" d="M76.4,19.7c0-0.2,0-0.5,0-0.7c0.4,0.5,0.9,0.9,1.5,1.1c0.6,0.3,1.2,0.4,1.9,0.4c1.3,0,2.3-0.4,3.1-1.1
		c0.8-0.8,1.2-1.8,1.2-3c0-1.4-0.4-2.5-1.2-3.3c-0.8-0.8-1.8-1.2-3.1-1.2c-0.7,0-1.3,0.1-1.8,0.4c-0.6,0.2-1.1,0.6-1.5,1.1V8.4h-3.8
		v10.5c0,0.3,0,0.6,0,0.8c0,0.2-0.1,0.4-0.1,0.6h3.8C76.4,20.1,76.4,19.9,76.4,19.7z M76.9,14.4c0.3-0.4,0.8-0.6,1.5-0.6
		c0.6,0,1.1,0.2,1.4,0.6c0.3,0.4,0.5,1,0.5,1.7h0c0,0.7-0.2,1.3-0.5,1.7c-0.4,0.4-0.8,0.6-1.4,0.6c-0.6,0-1.1-0.2-1.4-0.6
		c-0.3-0.4-0.5-1-0.5-1.7C76.4,15.4,76.6,14.8,76.9,14.4z"/>
	<path fill="#FFFCFC" d="M133.6,15.8L133.6,15.8l3.5,0V18c-0.3,0.3-0.8,0.6-1.5,0.8c-0.6,0.3-1.3,0.4-2,0.4c-0.8,0-1.5-0.2-2.2-0.5
		c-0.7-0.3-1.2-0.9-1.6-1.6c-0.4-0.7-0.5-1.6-0.5-2.6c0-0.9,0.1-1.6,0.4-2.4c0.2-0.4,0.4-0.8,0.7-1.2c0.3-0.4,0.7-0.6,1.3-0.9
		c0.5-0.2,1.1-0.3,1.8-0.3c0.6,0,1.1,0.1,1.6,0.3c0.5,0.2,0.9,0.5,1.1,0.8c0.3,0.3,0.5,0.8,0.7,1.4l1.4-0.4
		c-0.2-0.8-0.5-1.4-0.9-1.9c-0.4-0.5-0.9-0.9-1.6-1.2c-0.7-0.3-1.5-0.4-2.3-0.4c-1.2,0-2.2,0.2-3.1,0.7c-0.9,0.5-1.6,1.2-2.1,2.2
		c-0.5,1-0.7,2.1-0.7,3.2c0,1.2,0.2,2.2,0.7,3.1c0.5,0.9,1.2,1.7,2.1,2.1c0.9,0.5,2,0.7,3.2,0.7c0.9,0,1.7-0.2,2.5-0.5
		c0.8-0.3,1.6-0.8,2.4-1.4v-4.4h-5V15.8z"/>
	<path fill="#FFFCFC" d="M96.5,19.7c0-0.2,0-0.4,0-0.6v-4.2c0-1.1-0.4-1.9-1.2-2.4c-0.8-0.5-2.1-0.8-3.7-0.8c-1.7,0-3,0.2-3.9,0.7
		c-0.9,0.4-1.3,1.1-1.3,2h3.5c0-0.3,0.2-0.5,0.4-0.7c0.2-0.2,0.6-0.2,1.1-0.2c0.5,0,0.9,0.1,1.1,0.3c0.3,0.2,0.4,0.5,0.4,0.9
		c0,0,0,0.1,0,0.1c0,0,0,0.1,0,0.1c-2.6,0-4.4,0.3-5.5,0.7c-1.1,0.5-1.6,1.2-1.6,2.3c0,0.8,0.3,1.4,0.9,1.8c0.6,0.4,1.5,0.6,2.7,0.6
		c0.8,0,1.5-0.1,2.1-0.3c0.6-0.2,1.1-0.6,1.4-1.1l0,0c0,0.2,0,0.4,0,0.6c0,0.2,0.1,0.4,0.2,0.6h3.5C96.5,20,96.5,19.9,96.5,19.7z
		 M92.3,18.1c-0.3,0.3-0.8,0.5-1.5,0.5c-0.4,0-0.7-0.1-0.9-0.2c-0.2-0.2-0.3-0.4-0.3-0.6c0-0.4,0.2-0.7,0.7-0.8
		c0.4-0.2,1.3-0.2,2.5-0.2l0,0.1C92.8,17.3,92.6,17.8,92.3,18.1z"/>
	<path fill="#FFFCFC" d="M118.4,19L118.4,19c0,0.2,0,0.4,0,0.6c0,0.2,0.1,0.4,0.2,0.6h3.5c-0.1-0.1-0.1-0.3-0.1-0.4
		c0-0.2,0-0.4,0-0.6v-4.2c0-1.1-0.4-1.9-1.2-2.4c-0.8-0.5-2.1-0.8-3.7-0.8c-1.7,0-3,0.2-3.9,0.7c-0.9,0.4-1.3,1.1-1.3,2h3.5
		c0-0.3,0.2-0.5,0.4-0.7c0.2-0.2,0.6-0.2,1.1-0.2c0.5,0,0.9,0.1,1.1,0.3c0.3,0.2,0.4,0.5,0.4,0.9c0,0,0,0.1,0,0.1c0,0,0,0.1,0,0.1
		c-2.6,0-4.4,0.3-5.5,0.7c-1.1,0.5-1.6,1.2-1.6,2.3c0,0.8,0.3,1.4,0.9,1.8c0.6,0.4,1.5,0.6,2.7,0.6c0.8,0,1.5-0.1,2.1-0.3
		C117.6,19.8,118,19.4,118.4,19z M116.4,18.5c-0.4,0-0.7-0.1-0.9-0.2c-0.2-0.2-0.3-0.4-0.3-0.6c0-0.4,0.2-0.7,0.7-0.8
		c0.4-0.2,1.3-0.2,2.5-0.2v0.1c0,0.6-0.2,1.1-0.5,1.4C117.5,18.4,117,18.5,116.4,18.5z"/>
	<path fill="#FFFCFC" d="M45.8,32.6c0,0-0.1-0.1-0.1-0.1c0.2,0,0.3-0.1,0.4-0.2c0.1-0.1,0.1-0.2,0.1-0.3c0-0.1,0-0.2-0.1-0.3
		c-0.1-0.1-0.1-0.1-0.2-0.2c-0.1,0-0.2,0-0.4,0h-0.8v1.9h0.2v-0.8h0.3c0.1,0,0.1,0,0.1,0c0,0,0.1,0,0.1,0.1c0,0,0.1,0.1,0.1,0.1
		c0,0.1,0.1,0.1,0.2,0.3l0.2,0.4h0.3L46,32.8C45.9,32.7,45.9,32.7,45.8,32.6z M45.5,32.3h-0.5v-0.6h0.6c0.1,0,0.2,0,0.3,0.1
		c0.1,0.1,0.1,0.1,0.1,0.2c0,0.1,0,0.1-0.1,0.2c0,0-0.1,0.1-0.1,0.1C45.7,32.3,45.6,32.3,45.5,32.3z"/>
	<path fill="#FFFCFC" d="M30.7,27c2.9-3.8,8.3-9.1,8.5-12.9c0.3-4.9-4.7-6.5-9.8-6.5c-3.6,0-7.3,1.1-9.8,2
		c-8.7,3-14.2,7.9-17.6,13.3c-3.6,5.3-2.4,10.5,5.3,10.6c5.9-0.2,9.7-1.9,13.8-3.9c0,0-11.1,3.1-15.1,0.8c-0.2,0-0.5-0.2-0.8-0.4
		c-2.2-2.2,0.6-4.7,4-6.2v-4.2c0.8,0.5,1.2,0.5,1.2,0.6l2.5-2.5l-0.8-2.2C19.4,13,22.4,12,28.4,11l-1.1-1l1.8-1
		c4.1,1.5,8.9,1.7,6.8,6.4c-1.3,2.5-5.1,6.7-6.6,8.4c-1,1.2-2,2.3-2.7,3.4c-0.7,1.1-1.2,2.1-1.2,3.1c0.1,7.6,22.5-3.5,26.8-6.5
		c-6.4,2.7-13.3,5.4-20.9,5.9C29.2,29.7,29.4,28.6,30.7,27z"/>
	<path fill="#FFFCFC" d="M64.7,25.3H69v8.8c0.5,0,1.5-0.5,1.5-1.4v-7.4c0.3,0,0.6-0.9,0.6-1.2l-6.3,0V25.3z"/>
	<path fill="#FFFCFC" d="M84.2,30h6.1c0.6,0,1.6-0.9,1.6-1.4v-4.5h-9.5v8.7c0,0.7,0.4,1.4,1.2,1.4h7.3c0.5,0,1.2-0.9,1.3-1.3l-8,0
		V30z M88.1,25.4h2v3.3h-2V25.4z M84.2,25.4h2.1v3.3h-2.1V25.4z"/>
	<path fill="#FFFCFC" d="M114.8,30.9h-4.3v-0.3h-0.7V31h-5.2v0.6h5.2v2.8c0,0,0.8-0.1,0.8-1.3v-1.6h3.2
		C114.7,31.5,114.8,30.9,114.8,30.9z"/>
	<path fill="#FFFCFC" d="M95.7,30h6.1c0.6,0,1.6-0.9,1.6-1.4v-4.5h-9.5v8.7c0,0.7,0.4,1.4,1.2,1.4h7.3c0.5,0,1.2-0.9,1.3-1.3l-8,0
		V30z M99.6,25.4h2v3.3h-2V25.4z M95.7,25.4h2.1v3.3h-2.1V25.4z"/>
	<path fill="#FFFCFC" d="M61,34.1c0.7,0,1.5-0.6,1.5-1.3v-0.5h0.8c0.6,0,1.2-0.8,1.2-1.2v-2.2c0-0.4-0.5-0.7-0.7-0.9
		c0.2-0.2,0.7-0.5,0.7-1v-2.9H61V34.1z M62.4,25.3H63v2.1c0,0.2-0.1,0.4-0.3,0.6c0,0-0.1,0.1-0.1,0.1c0,0,0,0-0.1,0H63v2.9h-0.6
		V25.3z"/>
	<path fill="#FFFCFC" d="M45.4,30.7c-1,0-1.8,0.8-1.8,1.8c0,1,0.8,1.8,1.8,1.8c1,0,1.8-0.8,1.8-1.8C47.2,31.5,46.4,30.7,45.4,30.7z
		 M45.4,33.9c-0.8,0-1.5-0.7-1.5-1.5c0-0.8,0.7-1.5,1.5-1.5c0.8,0,1.5,0.7,1.5,1.5C46.9,33.3,46.3,33.9,45.4,33.9z"/>
	<path fill="#FFFCFC" d="M77.4,32h3c0.4,0,0.8-0.7,1.1-1.1h-4v-0.8h2.2c0.6,0,1.7-0.9,1.7-1.3v-4.7h-9.6v6h3.9v0.8h-3.9V32h3.9V33
		h-4v1.2h9c0.4,0,0.7-0.7,1-1.2h-4.2V32z M77.4,26.5v-1.3h2.2V29h-2.2l0-1.3h0.8c0.1,0,0.2,0,0.3-0.1c0.1-0.1,0.8-0.9,0.9-1H77.4z
		 M75.6,29h-2.1v-1.3h2.1V29z M75.6,26.5h-2.1v-1.3h2.1V26.5z"/>
	<path fill="#FFFCFC" d="M65.1,32.2h1.8c0.3,0,0.6-0.1,0.9-0.3c0.2-0.1,0.3-0.2,0.4-0.4c0.3-0.3,0.4-0.6,0.4-1v-4.5h-3.5V32.2z
		 M66.5,27.3h0.8v3.8h-0.8V27.3z"/>
	<path fill="#FFFCFC" d="M104.6,34.3c0,0,0.1,0,0.3,0c0.5,0,0.8-0.4,1-0.7c0.2-0.3,1-1.3,1-1.3h-0.8L104.6,34.3z"/>
	<path fill="#FFFCFC" d="M105.4,29.7c0,0,0.1,0,0.2,0c1.1,0,1.2-0.1,1.2-0.1h6.9c0.9,0,1-0.5,1-0.5h-4.3v-1h3.3
		c0.9,0,1.1-0.6,1.1-0.6h-4.3v-0.9h3.3c0.9,0,1.1-0.6,1.1-0.6h-4.3v-0.9l3.3,0c0.9,0,1.1-0.6,1.1-0.6h-4.3l0.3-0.4h-0.7l-0.4,0.5
		h-2.9l0.4-0.5h-0.7l-1.8,2.4h0.8V29.7z M109.7,29h-3.7v-0.9h3.7V29z M109.7,27.5h-3.7v-0.9h3.7V27.5z M106.3,25.4l0.2-0.3h3.2
		l0,0.9h-3.7l0-0.3L106.3,25.4z"/>
	<path fill="#FFFCFC" d="M126.4,24.1l-9.4,0v10.2h8.5c0.6,0,0.9-0.6,0.9-1.2V24.1z M125.7,32.9c0,0.4-0.1,0.7-0.6,0.7h-7.5v-8.9h8.1
		L125.7,32.9z"/>
	<path fill="#FFFCFC" d="M112.9,32.3c0,0,0.8,1,1,1.3c0.2,0.3,0.6,0.7,1,0.7c0.3,0,0.3,0,0.3,0l-1.6-2H112.9z"/>
	<path fill="#FFFCFC" d="M119.7,31.5l1.8-3.3l-0.7,0l-2.2,3.9C118.6,32.1,119.4,32.2,119.7,31.5z"/>
	<path fill="#FFFCFC" d="M123.5,31.4L123.5,31.4c0,0.2-0.1,0.3-0.2,0.3h-0.7v0.6h0.9c0.6,0,0.8-0.2,0.7-0.8c0,0,0-3.8,0-3.8
		c0.7,0,0.8-0.6,0.8-0.6l-0.8,0v-1.3h-0.7V27h-4.9v0.6h4.9V31.4z"/>
</g>
</svg>
