<?xml version="1.0" encoding="utf-8"?>
<!-- Generator: Adobe Illustrator 25.0.1, SVG Export Plug-In . SVG Version: 6.00 Build 0)  -->
<svg version="1.1" id="Layer_1" xmlns="http://www.w3.org/2000/svg" xmlns:xlink="http://www.w3.org/1999/xlink" x="0px" y="0px"
	 viewBox="0 0 198 38" enable-background="new 0 0 198 38" xml:space="preserve">
<g opacity="0.7">
	<g>
		<path fill="#FFFCFC" d="M75.2,4.5c0.9,0,1.8,0.2,2.6,0.5c0.8,0.3,1.5,0.8,2,1.3s1,1.2,1.3,2c0.3,0.8,0.5,1.6,0.5,2.5
			c0,1.2-0.3,2.3-0.8,3.2c-0.5,1-1.3,1.7-2.3,2.3c-1,0.5-2.1,0.8-3.3,0.8h-4V4.5H75.2z M75.1,15.9c1.5,0,2.7-0.5,3.7-1.4
			c1-1,1.5-2.2,1.5-3.7c0-1-0.2-1.8-0.7-2.6c-0.4-0.8-1-1.4-1.8-1.8c-0.8-0.4-1.7-0.7-2.7-0.7h-2.7v10.2H75.1z"/>
		<path fill="#FFFCFC" d="M89.7,17.3c-0.9,0-1.8-0.2-2.6-0.5c-0.8-0.3-1.5-0.8-2.1-1.4c-0.6-0.6-1-1.3-1.4-2.1
			c-0.3-0.8-0.5-1.7-0.5-2.6c0-0.9,0.2-1.8,0.5-2.6C84,7.4,84.4,6.7,85,6.2c0.6-0.6,1.3-1,2.1-1.4c0.8-0.3,1.7-0.5,2.6-0.5
			c1.2,0,2.4,0.3,3.4,0.8c1,0.6,1.8,1.3,2.3,2.3c0.6,1,0.8,2.1,0.8,3.3c0,1.2-0.3,2.3-0.8,3.3c-0.6,1-1.3,1.8-2.3,2.3
			C92.1,17,90.9,17.3,89.7,17.3z M89.7,16.1c1.5,0,2.8-0.5,3.8-1.5c1-1,1.5-2.3,1.5-3.8c0-1-0.2-1.9-0.7-2.7
			c-0.5-0.8-1.1-1.4-1.9-1.9c-0.8-0.5-1.7-0.7-2.7-0.7c-1,0-1.9,0.2-2.7,0.7c-0.8,0.5-1.4,1.1-1.9,1.9s-0.7,1.7-0.7,2.7
			c0,1,0.2,1.9,0.7,2.7c0.5,0.8,1.1,1.4,1.9,1.9C87.8,15.9,88.7,16.1,89.7,16.1z"/>
		<path fill="#FFFCFC" d="M104.3,17.3c-0.9,0-1.8-0.2-2.6-0.5c-0.8-0.3-1.5-0.8-2-1.3c-0.6-0.6-1-1.3-1.3-2.1
			c-0.3-0.8-0.5-1.7-0.5-2.6c0-1.2,0.3-2.4,0.8-3.3c0.6-1,1.3-1.8,2.3-2.3c1-0.6,2.1-0.8,3.3-0.8c1.4,0,2.7,0.4,3.7,1.2
			c1.1,0.8,1.8,1.8,2.2,3.1h-1.3c-0.4-1-1-1.7-1.8-2.3c-0.8-0.5-1.8-0.8-2.9-0.8c-1.5,0-2.7,0.5-3.7,1.5c-1,1-1.5,2.2-1.5,3.8
			c0,1.5,0.5,2.8,1.5,3.8c1,1,2.2,1.5,3.7,1.5c1.1,0,2.1-0.3,2.9-0.9c0.8-0.6,1.4-1.4,1.8-2.4h1.3c-0.4,1.4-1.1,2.5-2.2,3.3
			C107,16.9,105.7,17.3,104.3,17.3z"/>
		<path fill="#FFFCFC" d="M75.5,21.8c1.2,0,2.1,0.4,2.9,1.1c0.8,0.8,1.2,1.7,1.2,2.8c0,1.1-0.4,2.1-1.2,2.8
			c-0.8,0.8-1.8,1.1-2.9,1.1h-3.2v4.7h-1.3V21.8H75.5z M75.5,28.5c0.8,0,1.5-0.3,2.1-0.8c0.5-0.5,0.8-1.2,0.8-2c0-0.8-0.3-1.4-0.8-2
			S76.3,23,75.5,23h-3.1v5.5H75.5z"/>
		<path fill="#FFFCFC" d="M89,34.4l-3-5.1h-3.2v5.1h-1.3V21.8h4.7c1.2,0,2.1,0.4,2.9,1.1c0.8,0.7,1.1,1.6,1.1,2.7
			c0,0.9-0.3,1.7-0.8,2.3c-0.5,0.7-1.3,1.1-2.1,1.3l3.1,5.2H89z M82.8,23v5.1h3.4c0.8,0,1.5-0.2,2-0.7c0.5-0.5,0.8-1.1,0.8-1.8
			c0-0.7-0.3-1.4-0.8-1.8c-0.5-0.5-1.2-0.7-2-0.7H82.8z"/>
		<path fill="#FFFCFC" d="M98.4,34.6c-0.9,0-1.8-0.2-2.6-0.5c-0.8-0.3-1.5-0.8-2.1-1.4c-0.6-0.6-1-1.3-1.4-2.1
			c-0.3-0.8-0.5-1.7-0.5-2.6c0-0.9,0.2-1.8,0.5-2.6c0.3-0.8,0.8-1.5,1.4-2.1c0.6-0.6,1.3-1,2.1-1.4c0.8-0.3,1.7-0.5,2.6-0.5
			c1.2,0,2.4,0.3,3.4,0.8c1,0.6,1.8,1.3,2.3,2.3c0.6,1,0.8,2.1,0.8,3.3c0,1.2-0.3,2.3-0.8,3.3c-0.6,1-1.3,1.8-2.3,2.3
			C100.7,34.3,99.6,34.6,98.4,34.6z M98.4,33.4c1.5,0,2.8-0.5,3.8-1.5c1-1,1.5-2.3,1.5-3.8c0-1-0.2-1.9-0.7-2.7
			c-0.5-0.8-1.1-1.4-1.9-1.9c-0.8-0.5-1.7-0.7-2.7-0.7c-1,0-1.9,0.2-2.7,0.7c-0.8,0.5-1.4,1.1-1.9,1.9c-0.5,0.8-0.7,1.7-0.7,2.7
			c0,1,0.2,1.9,0.7,2.7c0.5,0.8,1.1,1.4,1.9,1.9C96.5,33.2,97.4,33.4,98.4,33.4z"/>
		<path fill="#FFFCFC" d="M111.8,21.8c1.2,0,2.1,0.4,2.9,1.1c0.8,0.8,1.2,1.7,1.2,2.8c0,1.1-0.4,2.1-1.2,2.8
			c-0.8,0.8-1.8,1.1-2.9,1.1h-3.2v4.7h-1.3V21.8H111.8z M111.7,28.5c0.8,0,1.5-0.3,2.1-0.8c0.5-0.5,0.8-1.2,0.8-2
			c0-0.8-0.3-1.4-0.8-2c-0.5-0.5-1.2-0.8-2.1-0.8h-3.1v5.5H111.7z"/>
		<path fill="#FFFCFC" d="M119,33.2h6v1.2h-7.2V21.8h7V23H119v4.3h5.3v1.2H119V33.2z"/>
		<path fill="#FFFCFC" d="M134.5,34.4l-3-5.1h-3.2v5.1H127V21.8h4.7c1.2,0,2.1,0.4,2.9,1.1c0.8,0.7,1.1,1.6,1.1,2.7
			c0,0.9-0.3,1.7-0.8,2.3c-0.5,0.7-1.3,1.1-2.1,1.3l3.1,5.2H134.5z M128.3,23v5.1h3.4c0.8,0,1.5-0.2,2-0.7c0.5-0.5,0.8-1.1,0.8-1.8
			c0-0.7-0.3-1.4-0.8-1.8c-0.5-0.5-1.2-0.7-2-0.7H128.3z"/>
		<path fill="#FFFCFC" d="M145.8,21.8V23h-3.9v11.4h-1.3V23h-3.9v-1.2H145.8z"/>
		<path fill="#FFFCFC" d="M147.6,34.4V21.8h1.3v12.6H147.6z"/>
		<path fill="#FFFCFC" d="M153.3,33.2h6v1.2H152V21.8h7V23h-5.8v4.3h5.3v1.2h-5.3V33.2z"/>
		<path fill="#FFFCFC" d="M164.9,34.6c-1.4,0-2.5-0.4-3.3-1.1c-0.8-0.7-1.3-1.7-1.3-2.9h1.3c0,0.8,0.3,1.5,0.9,2
			c0.6,0.5,1.4,0.7,2.4,0.7c0.9,0,1.6-0.2,2.2-0.7c0.6-0.4,0.9-1,0.9-1.8c0-0.2,0-0.4-0.1-0.5c0-0.2-0.1-0.3-0.1-0.4
			c-0.1-0.1-0.1-0.2-0.3-0.3c-0.1-0.1-0.2-0.2-0.3-0.3c-0.1-0.1-0.2-0.1-0.4-0.2c-0.2-0.1-0.3-0.1-0.5-0.2c-0.1,0-0.3-0.1-0.5-0.2
			c-0.2-0.1-0.4-0.1-0.5-0.1c-0.1,0-0.3-0.1-0.6-0.1c-0.3-0.1-0.5-0.1-0.7-0.2c-0.2,0-0.4-0.1-0.6-0.2c-0.3-0.1-0.5-0.1-0.6-0.2
			c-0.2-0.1-0.3-0.2-0.6-0.3c-0.2-0.1-0.4-0.2-0.5-0.3c-0.1-0.1-0.3-0.2-0.4-0.4c-0.1-0.2-0.3-0.3-0.3-0.5c-0.1-0.2-0.1-0.4-0.2-0.6
			s-0.1-0.5-0.1-0.8c0-1.1,0.4-1.9,1.1-2.5c0.8-0.6,1.8-0.9,3.1-0.9c1.3,0,2.3,0.3,3,1c0.7,0.7,1.1,1.5,1.1,2.7h-1.3
			c0-0.8-0.3-1.3-0.8-1.8c-0.5-0.4-1.2-0.7-2.1-0.7c-0.9,0-1.6,0.2-2.1,0.6c-0.5,0.4-0.8,0.9-0.8,1.6c0,0.2,0,0.4,0.1,0.5
			c0,0.2,0.1,0.3,0.2,0.4s0.2,0.2,0.3,0.3c0.1,0.1,0.2,0.2,0.4,0.3c0.2,0.1,0.3,0.2,0.5,0.2c0.1,0.1,0.3,0.1,0.6,0.2
			c0.2,0.1,0.4,0.1,0.6,0.2c0.1,0,0.4,0.1,0.6,0.1c0.3,0.1,0.5,0.1,0.7,0.2c0.2,0,0.4,0.1,0.6,0.2c0.3,0.1,0.5,0.2,0.7,0.2
			s0.4,0.2,0.6,0.3c0.2,0.1,0.4,0.2,0.5,0.3c0.1,0.1,0.3,0.3,0.4,0.4c0.2,0.2,0.3,0.3,0.4,0.5c0.1,0.2,0.2,0.4,0.2,0.6
			c0.1,0.2,0.1,0.5,0.1,0.8c0,1.1-0.4,2-1.2,2.7C167.2,34.2,166.2,34.6,164.9,34.6z"/>
	</g>
	<path fill="#FFFCFC" d="M134.5,16.4l-4.4-12.8l-4.2,10l-2.6-5.2l-0.9,2.2h-7.6c-0.2,0-0.4-0.2-0.4-0.4s0.2-0.4,0.4-0.4h7l1.4-3.5
		l2.6,5.3l4.3-10.4l4.5,13l2.2-4.4h4.1l2.5-2.4l2.5,2.4h21.6c0.2,0,0.4,0.2,0.4,0.4s-0.2,0.4-0.4,0.4h-21.9l-2.2-2.1l-2.1,2.1h-4
		L134.5,16.4z"/>
	<path fill="#FFFCFC" d="M29.3,19.4c0-8.3,6-15.1,13.8-16.6l0,20.3h-4.7c-1.9,0-3.5-1.6-3.5-3.5c0-1.9,1.6-3.5,3.5-3.5h3v-2h-3
		c-3,0-5.5,2.5-5.5,5.5c0,3,2.5,5.5,5.5,5.5h6.7l0-19.8V0.6c-9.9,0.5-17.8,8.8-17.8,18.8c0,10.1,7.9,18.3,17.8,18.8l0-2
		C36.4,35.7,29.3,28.3,29.3,19.4z"/>
	<path fill="#FFFCFC" d="M47.2,0.6l0,2C56,3.1,63,10.4,63,19.4c0,8.3-6,15.1-13.8,16.6l0-19.6h4.7c1.9,0,3.5,1.6,3.5,3.5
		c0,1.9-1.6,3.5-3.5,3.5h-3v2h3c3,0,5.5-2.5,5.5-5.5c0-3-2.5-5.5-5.5-5.5h-6.7l0,20.4v3.5C57.1,37.7,65,29.4,65,19.4
		C65,9.3,57.1,1.1,47.2,0.6z"/>
	<g>
		<path fill="#FFFCFC" d="M170.8,18.4c-0.1-0.2-0.2-0.4-0.4-0.6c-0.2-0.2-0.4-0.3-0.6-0.4c-0.2-0.1-0.5-0.1-0.7-0.1s-0.5,0-0.7,0.1
			c-0.2,0.1-0.4,0.2-0.6,0.4c-0.2,0.2-0.3,0.4-0.4,0.6c-0.1,0.2-0.1,0.5-0.1,0.7c0,0.3,0.1,0.5,0.1,0.7c0.1,0.2,0.2,0.4,0.4,0.6
			c0.2,0.2,0.4,0.3,0.6,0.4c0.2,0.1,0.5,0.1,0.7,0.1s0.5,0,0.7-0.1c0.2-0.1,0.4-0.2,0.6-0.4c0.2-0.2,0.3-0.4,0.4-0.6
			c0.1-0.2,0.1-0.5,0.1-0.7C171,18.9,170.9,18.7,170.8,18.4z M169.1,20.6c-0.8,0-1.5-0.7-1.5-1.5c0-0.8,0.7-1.5,1.5-1.5
			s1.5,0.7,1.5,1.5C170.6,20,169.9,20.6,169.1,20.6z"/>
		<path fill="#FFFCFC" d="M169.8,19.5c-0.1-0.1-0.1-0.2-0.2-0.3c0.2-0.1,0.3-0.3,0.3-0.5c0-0.2-0.1-0.4-0.3-0.5
			c-0.2-0.1-0.4-0.2-0.7-0.2c-0.2,0-0.4,0-0.6,0.1l0,0v2.1h0.4v-0.9h0.3c0.1,0,0.3,0.1,0.4,0.2c0.1,0.1,0.2,0.4,0.2,0.7l0,0h0.4l0,0
			C169.9,19.9,169.9,19.6,169.8,19.5z M169,19h-0.3v-0.6c0.1,0,0.2,0,0.3,0c0.4,0,0.6,0.1,0.6,0.3C169.5,18.9,169.4,19,169,19z"/>
	</g>
</g>
</svg>
