<?xml version="1.0" encoding="utf-8"?>
<!-- Generator: Adobe Illustrator 25.0.1, SVG Export Plug-In . SVG Version: 6.00 Build 0)  -->
<svg version="1.1" id="Layer_1" xmlns="http://www.w3.org/2000/svg" xmlns:xlink="http://www.w3.org/1999/xlink" x="0px" y="0px"
	 viewBox="0 0 192 34" enable-background="new 0 0 192 34" xml:space="preserve">
<g opacity="0.7">
	<path fill="#FFFCFC" d="M77.5,10.2c-0.7,1.9-2.6,3.3-4.7,3.3c-2.8,0-5.1-2.3-5.1-5.1V7.4c0-2.8,2.3-5.1,5.1-5.1
		c2.2,0,4,1.4,4.7,3.3H80C79.2,2.4,76.3,0,72.8,0c-4.1,0-7.4,3.3-7.4,7.4v1.1c0,4.1,3.3,7.4,7.4,7.4c3.5,0,6.4-2.4,7.2-5.6H77.5z"/>
	<path fill="#FFFCFC" d="M119.2,18.2c-4.1,0-7.4,3.3-7.4,7.4v1.1c0,4.1,3.3,7.4,7.4,7.4s7.4-3.3,7.4-7.4v-1.1
		C126.6,21.5,123.3,18.2,119.2,18.2 M124.3,26.6c0,2.8-2.3,5.1-5.1,5.1c-2.8,0-5.1-2.3-5.1-5.1v-1.1c0-2.8,2.3-5.1,5.1-5.1
		c2.8,0,5.1,2.3,5.1,5.1V26.6z"/>
	<path fill="#FFFCFC" d="M101,0h2.3v15.8H101V0z"/>
	<path fill="#FFFCFC" d="M103.4,18.2h-2.6L94.8,34h9.8l-0.9-2.3h-5.5l4-10.4L107,34h2.5L103.4,18.2z"/>
	<path fill="#FFFCFC" d="M88.7,13.5H91v15.8h-2.3V13.5z"/>
	<path fill="#FFFCFC" d="M91.1,31.7h-2.6L87.7,34H92L91.1,31.7z"/>
	<path fill="#FFFCFC" d="M82.5,11.2h9.8l-0.9-2.3h-5.5L89.3,0h-2.5L82.5,11.2z"/>
	<path fill="#FFFCFC" d="M90.4,0l4.3,11.2h2.5L92.9,0H90.4z"/>
	<path fill="#FFFCFC" d="M77.9,18.2v12.2L67.7,18.2h-2.3V34h2.3V21.8L77.9,34h2.3V18.2H77.9z"/>
</g>
</svg>
