<?xml version="1.0" encoding="utf-8"?>
<!-- Generator: Adobe Illustrator 25.0.1, SVG Export Plug-In . SVG Version: 6.00 Build 0)  -->
<svg version="1.1" id="Layer_1" xmlns="http://www.w3.org/2000/svg" xmlns:xlink="http://www.w3.org/1999/xlink" x="0px" y="0px"
	 viewBox="0 0 206 40" enable-background="new 0 0 206 40" xml:space="preserve">
<g opacity="0.7">
	<path fill="#FFFCFC" d="M72.5,25.4c-2.2,0-4.2-0.9-6.1-2.4l0.5-2.1l0-0.1c0.4-2.3,1.7-6.1,5.6-6.1c3,0,5.4,2.4,5.4,5.4
		C77.8,23,75.4,25.4,72.5,25.4L72.5,25.4z M72.5,9.2c-5,0-9,3.3-10.5,8.7c-2.4-3.6-4.3-8-5.3-11.7h-5.4v14.1c0,2.8-2.3,5.1-5.1,5.1
		c-2.8,0-5.1-2.3-5.1-5.1V6.2h-5.4v14.1c0,5.8,4.7,10.5,10.5,10.5c5.8,0,10.5-4.7,10.5-10.5V18c1.1,2.2,2.3,4.4,3.9,6.4L57.2,40h5.6
		l2.4-11.3c2.1,1.4,4.5,2.2,7.3,2.2c6,0,10.8-4.9,10.8-10.8C83.3,14.1,78.4,9.2,72.5,9.2L72.5,9.2z"/>
	<path fill="#FFFCFC" d="M99.8,9.9l3.5,14.1l3.9-14.1h4.6l-5.9,20.4h-4.6l-3.6-14.2L94,30.3h-4.6L83.5,9.8h4.6L91.9,24l3.5-14.1
		L99.8,9.9L99.8,9.9L99.8,9.9z M122.8,9.2c-6,0-10.8,4.8-10.8,10.8c0,6,4.8,10.8,10.8,10.8c6,0,10.8-4.8,10.8-10.8
		C133.6,14.1,128.8,9.2,122.8,9.2L122.8,9.2z M122.8,26.4c-3.5,0-6.4-2.8-6.4-6.4c0-3.5,2.9-6.4,6.4-6.4c3.5,0,6.4,2.8,6.4,6.4
		C129.2,23.6,126.3,26.4,122.8,26.4z M146.8,14.4c-3.1,0-5.6,2.5-5.6,5.6v10.2h-4.6V9.9h4.6V13c0,0,2-3.1,6-3.1h1.4v4.6L146.8,14.4
		L146.8,14.4z M162.3,19.3c3.3-1.9,5.5-5.4,5.5-9.4h-4.6c0,3.4-2.8,6.2-6.2,6.2h-0.6V0h-4.6v30.3h4.6v-9.6h0.6c0.5,0,1,0.3,1.3,0.7
		l6.6,9h5.5L162.3,19.3L162.3,19.3z"/>
</g>
</svg>
