<?xml version="1.0" encoding="utf-8"?>
<!-- Generator: Adobe Illustrator 25.0.1, SVG Export Plug-In . SVG Version: 6.00 Build 0)  -->
<svg version="1.1" id="Layer_1" xmlns="http://www.w3.org/2000/svg" xmlns:xlink="http://www.w3.org/1999/xlink" x="0px" y="0px"
	 viewBox="0 0 158 42" enable-background="new 0 0 158 42" xml:space="preserve">
<g opacity="0.7">
	<g>
		<path fill="#FFFCFC" d="M143.2,25.7H57.7c-0.3,0-0.6-0.3-0.6-0.6c0-0.3,0.3-0.6,0.6-0.6h85.5c0.3,0,0.6,0.3,0.6,0.6
			C143.7,25.5,143.5,25.7,143.2,25.7z"/>
	</g>
	<g>
		<path fill="#FFFCFC" d="M134.9,11.8c2.1-2,5.8-2.4,8.3-0.8c0.8,0.5,1.1,1.3,0.7,2c-0.4,0.7-1.2,0.8-2.1,0.2c-1.8-1.1-3.7-1-5,0.5
			c-1.3,1.4-1.3,3.8,0,5.2c1.1,1.3,3.4,1.6,4.9,0.7c0.2-0.1,0.3-0.3,0.3-0.5c0-0.3,0-0.5,0-0.8c0.1-0.5-0.1-0.6-0.6-0.6
			c-0.4,0-0.9,0-1.3,0c-0.7,0-1.1-0.5-1.1-1.1c0-0.6,0.4-1.1,1.1-1.1c1.1,0,2.1,0,3.2,0c0.8,0,1.2,0.5,1.3,1.3c0,1,0,2.1,0,3.1
			c0,0.6-0.3,1.1-0.8,1.5c-2.5,1.6-5.6,1.7-7.7,0.4C132.6,19.7,132,14.7,134.9,11.8z"/>
		<path fill="#FFFCFC" d="M58.8,11.5c0.6-0.6,1.3-1,2.1-1.2c1.6-0.3,3.1-0.2,4.6,0.6c0.8,0.4,1.1,1.1,0.8,1.7
			c-0.3,0.7-1,0.9-1.9,0.5c-0.7-0.3-1.5-0.6-2.3-0.6c-0.4,0-0.7,0.1-1,0.2c-0.3,0.2-0.5,0.5-0.6,0.8c0,0.4,0.2,0.7,0.5,0.9
			c0.5,0.3,1.1,0.4,1.7,0.5c0.8,0.2,1.6,0.3,2.3,0.6c1.3,0.5,2.1,1.4,2.2,2.9c0.1,1.5-0.5,2.7-1.9,3.4c-2.2,1.1-4.3,0.8-6.4-0.2
			c-0.1,0-0.2-0.1-0.3-0.2c-0.8-0.4-1-1.1-0.7-1.8c0.3-0.6,1.1-0.8,1.9-0.4c0.5,0.3,0.9,0.5,1.5,0.7c0.8,0.2,1.6,0.3,2.4,0
			c0.5-0.2,0.8-0.5,0.8-1c0-0.5-0.3-0.9-0.7-1c-0.6-0.2-1.2-0.3-1.7-0.5c-0.7-0.2-1.4-0.3-2-0.5C57.8,16.2,57.2,13.4,58.8,11.5z"/>
		<path fill="#FFFCFC" d="M98.3,15.3c1-1.4,1.9-2.7,2.8-4c0.2-0.2,0.3-0.5,0.6-0.7c0.5-0.4,1.2-0.4,1.7-0.1c0.4,0.4,0.6,1,0.3,1.6
			c-0.1,0.2-0.3,0.5-0.4,0.7c-1.1,1.5-2.2,3-3.4,4.5c-0.2,0.3-0.3,0.6-0.3,1c0,0.9,0,1.8,0,2.7c0,0.9-0.6,1.5-1.3,1.4
			c-0.8,0-1.3-0.6-1.3-1.5c0-0.5-0.1-1.1,0-1.6c0.2-1.2-0.2-2.1-1-3.1c-1-1.3-2-2.6-2.9-3.9c-0.5-0.7-0.4-1.5,0.2-1.9
			c0.6-0.5,1.4-0.4,2,0.3c0.1,0.1,0.2,0.3,0.3,0.4c0.8,1.1,1.5,2.2,2.3,3.3C98,14.8,98.2,15,98.3,15.3z"/>
		<path fill="#FFFCFC" d="M78.5,21.9c-0.2,0.4-0.6,0.6-1.1,0.6c-2.1,0-4.1,0.1-6.2,0.1c-0.8,0-1.3-0.5-1.4-1.3
			c-0.1-3.1-0.1-6.3-0.1-9.4c0-0.8,0.5-1.4,1.3-1.4c0.8,0,1.3,0.5,1.4,1.4c0.1,2.6,0.1,5.1,0.1,7.7c0,0.5,0.2,0.6,0.6,0.6
			c1.4,0,2.8-0.1,4.2-0.1C78.4,20.1,79,21.1,78.5,21.9z"/>
		<path fill="#FFFCFC" d="M121.8,11c-2.9,1.8-3.8,5.6-2,8.6c1.8,2.9,6,3.8,9,1.9c2.9-1.8,3.8-5.7,1.9-8.6
			C128.9,10,124.9,9.1,121.8,11z M127.3,19.5c-1.7,1-4,0.5-5-1.2c-1.1-1.8-0.6-4.3,1.1-5.3c1.7-1.1,3.9-0.5,5,1.2
			C129.5,16,129,18.5,127.3,19.5z"/>
		<path fill="#FFFCFC" d="M111.3,10.5c-1.2,0-2.3,0-3.5,0c-1.1,0-1.5,0.5-1.6,1.6c0,2.9,0,5.9-0.1,8.8c0,1.1,0.5,1.6,1.6,1.7
			c1.1,0,2.2,0,3.3,0c4.1,0,6.9-3.4,6.1-7.3C116.7,12.5,114.3,10.6,111.3,10.5z M111.1,20.2c-0.6,0-1.2,0-1.8,0
			c-0.3,0-0.4-0.1-0.4-0.4c0-2.1,0-4.3,0-6.4c0-0.3,0.1-0.5,0.5-0.5c0.7,0.1,1.4,0,2.1,0.1c1.6,0.2,2.7,1.2,3,2.8
			C115,18.1,113.5,20,111.1,20.2z"/>
		<path fill="#FFFCFC" d="M92.3,20.6c-1.3-3.1-2.7-6.1-4-9.2c-0.3-0.8-0.8-1.2-1.7-1.2c-0.9,0-1.4,0.5-1.7,1.3
			c-0.3,0.7-0.6,1.4-0.9,2c-1.1,2.5-2.2,4.9-3.3,7.4c-0.2,0.5,0,1.2,0.6,1.5c0.5,0.3,1.3,0.1,1.6-0.4c0.3-0.5,0.6-1.1,0.8-1.6
			c0.2-0.5,0.4-0.7,0.9-0.6c0.9,0,1.9,0.1,2.8,0c1.4-0.2,2.3,0.2,2.6,1.7c0,0.1,0.1,0.2,0.1,0.2c0.4,0.8,1.1,1.1,1.8,0.8
			C92.4,22.1,92.6,21.4,92.3,20.6z M84.8,17.4c0.1-0.3,0.3-0.6,0.4-0.9c0.1-0.4,0.3-0.7,0.4-1.1c0.1-0.3,0.3-0.7,0.4-1
			c0.1-0.2,0.1-0.3,0.2-0.5c0-0.1,0.1-0.2,0.1-0.3c0,0,0-0.1,0.1-0.1c0,0,0.1-0.1,0.1-0.1c0,0.1,0.1,0.2,0.1,0.2
			c0,0.1,0,0.1,0.1,0.2c0.1,0.1,0.1,0.3,0.2,0.4c0.1,0.3,0.3,0.7,0.4,1c0.1,0.3,0.3,0.7,0.4,1c0.1,0.4,0.3,0.7,0.4,1.1
			C87,17.4,86,17.4,84.8,17.4z"/>
	</g>
	<g>
		<path fill="#FFFCFC" d="M60.5,31.5c0.5-0.8,1-1.6,1.5-2.4c0.1-0.2,0.2-0.4,0.3-0.5c0.3-0.4,0.6-0.4,1-0.3c0.3,0.1,0.5,0.4,0.5,0.7
			c0,1.7,0,3.4,0,5.1c0,0.5-0.2,0.8-0.7,0.8c-0.5,0-0.7-0.4-0.7-0.9c0-1,0-1.9,0-3c-0.6,0.4-0.8,1-1.1,1.4c-0.6,0.9-1,0.9-1.6,0
			c-0.2-0.3-0.3-0.5-0.5-0.8c-0.2-0.2-0.3-0.5-0.5-0.8c0,1.1,0,2.1,0,3.1c0,0.4-0.2,0.7-0.5,0.8c-0.3,0.1-0.6,0-0.8-0.3
			c-0.1-0.2-0.1-0.4-0.1-0.5c0-1.7,0-3.3,0-5c0-0.4,0.2-0.7,0.6-0.9c0.4-0.1,0.8,0,1,0.3c0.4,0.7,0.9,1.4,1.3,2.1
			C60.1,31,60.3,31.2,60.5,31.5z"/>
		<path fill="#FFFCFC" d="M73.7,30.8c0,1.2,0,2.2,0,3.3c0,0.5-0.1,1-0.7,1c-0.6,0-0.7-0.4-0.7-1c0-1.6,0-3.1-0.1-4.7
			c0-0.4,0-0.9,0.5-1c0.5-0.2,0.9,0.1,1.2,0.5c0.9,1.1,1.8,2.3,2.8,3.6c0-1,0-1.9,0-2.8c0-0.2,0-0.4,0-0.6c0-0.4,0.2-0.7,0.7-0.7
			c0.5,0,0.7,0.3,0.7,0.7c0,1.8,0.1,3.6,0.1,5.4c0,0.3-0.2,0.6-0.5,0.6c-0.5,0.1-0.8-0.1-1-0.4c-0.8-1-1.5-1.9-2.2-2.9
			C74.1,31.4,73.9,31.2,73.7,30.8z"/>
		<path fill="#FFFCFC" d="M111.4,30.8c0,1.2,0,2.2,0,3.3c0,0.5-0.1,1-0.7,1c-0.6,0-0.7-0.4-0.7-1c0-1.6,0-3.1-0.1-4.7
			c0-0.4,0-0.9,0.5-1c0.5-0.2,0.9,0.1,1.2,0.5c0.9,1.1,1.8,2.3,2.8,3.6c0-1,0-1.9,0-2.8c0-0.2,0-0.4,0-0.6c0-0.4,0.2-0.7,0.7-0.7
			c0.5,0,0.7,0.3,0.7,0.7c0,1.8,0.1,3.6,0.1,5.4c0,0.3-0.2,0.6-0.5,0.6c-0.5,0.1-0.8-0.1-1-0.4c-0.8-1-1.5-1.9-2.2-2.9
			C111.9,31.4,111.7,31.2,111.4,30.8z"/>
		<path fill="#FFFCFC" d="M70.6,28.7c0.3,0.4,0,1-0.6,1c-0.8,0-1.6,0-2.4,0c-0.6,0-0.5,0.3-0.4,0.6c0,0.3-0.3,0.8,0.4,0.8
			c0.7,0,1.3,0,2,0c0.4,0,0.8,0.1,0.8,0.6c0,0.5-0.3,0.7-0.8,0.7c-0.7,0-1.3,0-2,0c-0.6,0-0.5,0.3-0.4,0.6c0,0.3-0.3,0.8,0.4,0.8
			c0.8,0,1.6,0,2.4,0c0.4,0,0.8,0.1,0.8,0.6c0,0.6-0.4,0.7-0.9,0.7c-1.1,0-2.2,0-3.4,0c-0.6,0-0.9-0.3-0.9-0.9c0-1.6,0-3.3,0-4.9
			c0-0.6,0.3-0.9,0.9-0.9c1.1,0,2.3,0,3.4,0C70.2,28.4,70.4,28.5,70.6,28.7z"/>
		<path fill="#FFFCFC" d="M143.6,28.7c0.3,0.4,0,1-0.6,1c-0.8,0-1.6,0-2.4,0c-0.6,0-0.5,0.3-0.4,0.6c0,0.3-0.3,0.8,0.4,0.8
			c0.7,0,1.3,0,2,0c0.4,0,0.8,0.1,0.8,0.6c0,0.5-0.3,0.7-0.8,0.7c-0.7,0-1.3,0-2,0c-0.6,0-0.5,0.3-0.4,0.6c0,0.3-0.3,0.8,0.4,0.8
			c0.8,0,1.6,0,2.4,0c0.4,0,0.8,0.1,0.8,0.6c0,0.6-0.4,0.7-0.9,0.7c-1.1,0-2.2,0-3.4,0c-0.6,0-0.9-0.3-0.9-0.9c0-1.6,0-3.3,0-4.9
			c0-0.6,0.3-0.9,0.9-0.9c1.1,0,2.3,0,3.4,0C143.2,28.4,143.4,28.5,143.6,28.7z"/>
		<path fill="#FFFCFC" d="M100.9,30.9c0.8-0.7,1.7-1.4,2.6-2.2c0.2-0.2,0.4-0.4,0.7-0.4c0.3,0,0.5,0.1,0.7,0.3
			c0.2,0.3,0.1,0.6-0.1,0.8c-0.5,0.5-1,1-1.5,1.4c-0.4,0.3-0.3,0.5,0,0.8c0.6,0.7,1.1,1.3,1.6,2c0.3,0.4,0.4,0.8,0,1.2
			c-0.5,0.3-0.8,0.1-1.1-0.3c-0.5-0.6-0.9-1.2-1.4-1.8c-0.2-0.2-0.3-0.6-0.6-0.5c-0.3,0.2-0.8,0.4-0.8,0.9c0,0.3,0,0.7,0,1
			c0,0.5-0.3,0.8-0.7,0.8c-0.5,0-0.7-0.3-0.7-0.8c0-1.7,0-3.5,0-5.2c0-0.5,0.3-0.8,0.7-0.8c0.5,0,0.7,0.3,0.7,0.8
			C101,29.7,100.9,30.4,100.9,30.9z"/>
		<path fill="#FFFCFC" d="M83.4,28.3c0.8-0.2,1.8-0.2,2.7,0.3c0.4,0.2,0.6,0.5,0.4,0.9c-0.2,0.4-0.5,0.5-0.9,0.3
			c-0.5-0.2-0.9-0.4-1.4-0.3c-0.4,0-0.7,0.1-0.8,0.5c-0.1,0.4,0.3,0.6,0.6,0.7c0.6,0.2,1.2,0.3,1.8,0.5c0.9,0.3,1.3,0.8,1.3,1.7
			c0,0.9-0.5,1.6-1.3,1.9c-1.2,0.4-2.3,0.2-3.4-0.4c-0.4-0.2-0.5-0.5-0.3-0.9c0.2-0.4,0.6-0.5,1-0.3c0.6,0.3,1.2,0.6,1.9,0.5
			c0.4,0,0.7-0.1,0.8-0.6c0.1-0.5-0.3-0.6-0.7-0.7c-0.5-0.1-1.1-0.2-1.6-0.4c-1-0.3-1.4-0.8-1.4-1.7C81.8,29.4,82.3,28.7,83.4,28.3z
			"/>
		<path fill="#FFFCFC" d="M94.3,28.3c0.8-0.2,1.8-0.2,2.7,0.3c0.4,0.2,0.6,0.5,0.4,0.9c-0.2,0.4-0.5,0.5-0.9,0.3
			c-0.5-0.2-0.9-0.4-1.4-0.3c-0.4,0-0.7,0.1-0.8,0.5c-0.1,0.4,0.3,0.6,0.6,0.7c0.6,0.2,1.2,0.3,1.8,0.5c0.9,0.3,1.3,0.8,1.3,1.7
			c0,0.9-0.5,1.6-1.3,1.9c-1.2,0.4-2.3,0.2-3.4-0.4c-0.4-0.2-0.5-0.5-0.3-0.9c0.2-0.4,0.6-0.5,1-0.3c0.6,0.3,1.2,0.6,1.9,0.5
			c0.4,0,0.7-0.1,0.8-0.6c0.1-0.5-0.3-0.6-0.7-0.7c-0.5-0.1-1.1-0.2-1.6-0.4c-1-0.3-1.4-0.8-1.4-1.7C92.7,29.4,93.2,28.7,94.3,28.3z
			"/>
		<path fill="#FFFCFC" d="M122,28.5c0.3,0.1,0.6,0.3,0.8,0.5c0.3,0.3,0.3,0.6,0.1,0.9c-0.2,0.3-0.6,0.4-0.9,0.2
			c-0.1,0-0.1-0.1-0.2-0.2c-1-0.6-2-0.5-2.7,0.2c-0.7,0.8-0.7,2.1-0.1,2.9c0.6,0.8,1.6,0.9,2.7,0.3c0.4-0.2,0.8-0.4,1.1,0.1
			c0.3,0.5-0.1,0.8-0.4,1.1c-1.1,0.8-2.8,0.7-4-0.1c-1.1-0.7-1.6-2.2-1.4-3.5c0.3-1.4,1.3-2.4,2.7-2.7
			C120.5,28.1,121.4,28.2,122,28.5z"/>
		<path fill="#FFFCFC" d="M108.1,34.4c-0.1,0.4-0.3,0.7-0.7,0.7c-0.4,0-0.7-0.3-0.7-0.7c0-1.8,0-3.6,0-5.4c0-0.4,0.3-0.6,0.7-0.7
			c0.4,0,0.7,0.3,0.7,0.7C108.1,30.8,108.1,32.6,108.1,34.4z"/>
		<path fill="#FFFCFC" d="M80.6,26.9c0.2,0.1,0.6,0,0.8,0.3c0.2,0.3,0,0.5-0.1,0.7c-0.3,0.6-0.6,1.1-1,1.7c-0.1,0.2-0.3,0.4-0.6,0.3
			c-0.3-0.1-0.2-0.4-0.2-0.6c0.2-0.6,0.3-1.2,0.4-1.8C80,27.2,80.2,26.9,80.6,26.9z"/>
		<path fill="#FFFCFC" d="M136.9,33.9c-0.2-0.2-0.3-0.4-0.5-0.6c-0.4-0.4-0.7-0.8,0.1-1.1c0.1,0,0.2-0.2,0.2-0.2
			c1.1-1.4,0.3-3.3-1.5-3.5c-1-0.1-2-0.1-2.9,0c-0.4,0-0.7,0.3-0.7,0.7c0,1.7,0,3.5,0,5.2c0,0.4,0.2,0.7,0.7,0.7
			c0.5,0,0.7-0.3,0.8-0.7c0-0.4,0-0.7,0-1.1c0-0.1-0.1-0.3,0.2-0.3c0.5,0,1-0.2,1.3,0.4c0.4,0.5,0.8,1,1.2,1.5
			c0.3,0.3,0.7,0.4,1.1,0.1C137.2,34.6,137.2,34.2,136.9,33.9z M134.3,31.6c-1.2,0-1.2,0-1.3-1.2c0-0.7,0.2-0.8,0.8-0.7
			c0.4,0,0.7,0,1.1,0.1c0.7,0.1,1,0.9,0.6,1.5C135.2,31.6,134.8,31.6,134.3,31.6z"/>
		<path fill="#FFFCFC" d="M130.4,34c-0.8-1.8-1.6-3.5-2.3-5.2c-0.2-0.4-0.5-0.6-0.9-0.6c-0.4,0-0.7,0.2-0.8,0.4
			c-0.2,0.4-0.3,0.7-0.5,1c-0.6,1.4-1.3,2.9-1.9,4.3c-0.2,0.4-0.2,0.7,0.3,1c0.4,0.2,0.8,0,1-0.4c0.1-0.1,0.1-0.3,0.2-0.4
			c0.1-0.6,0.5-0.8,1-0.7c0.2,0,0.3,0,0.5,0c1,0,2-0.2,2.2,1.1c0.1,0.4,0.5,0.5,0.9,0.3C130.5,34.8,130.6,34.4,130.4,34z
			 M126.3,32.2c0.1-0.8,0.6-1.4,0.8-2.3c0.4,0.9,0.6,1.5,1,2.3C127.5,32.2,126.9,32.2,126.3,32.2z"/>
	</g>
	<g>
		<path fill="#FFFCFC" d="M26,6.4c0,0.1-0.1,0.2-0.2,0.3c0,0-0.1,0.1-0.1,0.1c-0.8,1.5-1.6,3.1-2.5,4.6c0.2,0.1,0.4-0.1,0.6-0.2
			c0,0.1-0.1,0.1-0.1,0.2c-1.6,3.1-3.1,6.3-4.7,9.4c-0.1,0.2-0.1,0.4-0.1,0.6c0.2-0.1,0.3-0.3,0.5-0.4c0.1,0,0.1,0,0.1,0.1
			c-0.1,0.2-0.2,0.3-0.3,0.5c0,0,0.1,0,0.1,0.1c0.2-0.2,0.3-0.4,0.5-0.7c0,0,0.1,0.1,0.1,0.1c-0.1,0.3-0.2,0.5-0.3,0.8
			c0,0-0.1,0.1-0.1,0.1c0,0,0,0.1,0,0.2c0.1-0.1,0.1-0.2,0.2-0.2v0c0.2-0.2,0.4-0.4,0.6-0.7c0.1,0.2,0.1,0.4,0.1,0.6
			c-0.1,0.5-0.2,1-0.3,1.6c-0.2,1.8-0.4,3.6-0.4,5.5c0,0.5,0,0.5,0.4,0.3c0.1,0,0.2-0.1,0.2,0c0.3,0.8,0.8,1.4,1.3,2
			c0.2,0.3,0.3,0.5,0.3,0.9c-0.1,0.8-0.2,1.7-0.3,2.6c0,0.2-0.1,0.5-0.1,0.7c-3.7-3.2-6-7.9-6-13.2C15.5,15.2,19.8,9.1,26,6.4z"/>
		<path fill="#FFFCFC" d="M37.6,5.5C37,6.1,36.3,6,35.7,5.6C35.5,5.4,35.3,5.2,35,5c0,0.3,0.1,0.6,0.1,0.9c0,0-0.1,0-0.1,0.1
			c-0.3-0.3-0.5-0.5-0.8-0.8c0.1,0.2,0.2,0.5,0.3,0.8c-0.4-0.3-0.7-0.6-1-0.9c0.1,0.3,0.2,0.5,0.3,0.8c-0.4-0.3-0.8-0.7-1.1-1.1
			c0.1,0,0.2,0,0.4,0C34.6,4.9,36.1,5.1,37.6,5.5z"/>
		<path fill="#FFFCFC" d="M38.8,3.7C38.6,4.2,38.3,4.6,38,5c-1.6-0.5-3.3-0.7-5-0.7c-0.3,0-0.5,0-0.8,0c-0.3-0.5-0.6-1-0.8-1.5
			c0.5,0,1-0.1,1.5-0.1C35,2.8,37,3.1,38.8,3.7z"/>
		<path fill="#FFFCFC" d="M42.4,13.7c-0.1,0.1-0.3,0.2-0.4,0.1c-0.1,0-0.2-0.1-0.2-0.2c0.6-0.1,0.7-0.2,0.6-0.5c0,0-0.1,0-0.1,0
			c-0.1,0.1-0.2,0.1-0.2,0c0,0-0.1-0.1,0-0.2c0-0.1,0.1-0.1,0.2-0.1c0.2,0,0.3,0.1,0.4,0.3C42.6,13.4,42.6,13.6,42.4,13.7z"/>
		<path fill="#FFFCFC" d="M36.5,13.4c-0.2,0-0.5,0-0.7-0.1c-0.3,0-0.6-0.2-0.8-0.3c0.2-0.2,0.4-0.3,0.6-0.4c0.1-0.1,0.2-0.1,0.3,0
			c0.1,0.1,0.1,0.1,0.1,0.2c0,0.2-0.2,0.2-0.3,0.2c0,0,0,0,0,0c0,0.2,0.2,0.2,0.3,0.3c0.2,0,0.4,0,0.5-0.3c0.1-0.2,0-0.4-0.1-0.5
			c-0.1,0-0.1-0.1-0.2-0.1c0.1,0,0.2,0,0.2,0c0.2,0,0.3,0.1,0.4,0.2C37,12.9,36.9,13.4,36.5,13.4z"/>
		<path fill="#FFFCFC" d="M41.7,7.2c0,0.5,0,1,0.1,1.5c0.1,0.7,0.3,1.3,0.6,1.9c0.3,0.5,0.5,1,0.7,1.6c0.2,0.8,0.2,1.5-0.4,2.2
			c0.8,0.4,1.7,0.9,2.5,1.3c0,0,0,0,0,0c0.1,0,0.1,0.1,0.2,0.1c-1.8,0-3.3-0.7-4.4-2c0,0,0-0.1,0-0.1c0.3,0,0.4-0.1,0.5-0.4
			c0.2-0.6,0.4-0.9,1.2-1.4c0,0,0-0.1-0.1-0.1c0,0,0,0,0,0c-1-0.9-1.3-2.1-1.4-3.4c0-0.4,0-0.9,0-1.3c0-0.2,0-0.4,0-0.6
			c0-0.2,0-0.3,0-0.5c0-0.4,0-0.8-0.1-1.2c-0.1-0.3-0.1-0.7-0.2-1c0-0.1-0.1-0.2-0.1-0.3c-0.2-0.4-0.4-0.7-0.7-1
			c-0.1,0.3-0.2,0.6-0.3,0.9c-0.1,0.3-0.2,0.5-0.3,0.7c-0.2,0.5-0.3,1-0.5,1.4C39,5.6,39,5.7,38.9,5.9c0,0,0,0.1-0.1,0.1
			c-0.1,0.3-0.1,0.4,0.1,0.7c0.5,0.7,0.9,1.4,1.4,2.1c0-0.4-0.1-0.6-0.1-0.9c-0.1-0.5-0.2-1-0.2-1.5c0-0.2-0.1-0.4-0.1-0.6
			c0-0.1,0-0.1,0-0.2c-0.1-0.5-0.1-1,0.1-1.4c0-0.1,0.1-0.2,0.1-0.2c0.1-0.2,0.2-0.3,0.3-0.4c0,0,0,0,0.1-0.1c0,0,0,0.1,0,0.1
			c0,0.3,0,0.6,0,0.8c0,0.4-0.1,0.9,0,1.3c0.5-0.1,0.5-0.1,0.3,0.4c0,0,0,0.1,0,0.1c0,0.2-0.1,0.4-0.1,0.5c0,0.2-0.1,0.4-0.1,0.6
			c0.2,0,0.3,0,0.5-0.1c-0.1,0.6-0.2,1.2-0.3,1.8c0,0.1,0,0.2,0.1,0.3c0.3,0.5,0.7,1,1,1.5c0.1,0.1,0.1,0.2,0.1,0.3
			c-0.4-0.4-0.9-0.8-1.4-1.2c0,0.2,0,0.3-0.1,0.5C40.2,10,40,9.6,39.8,9.2c-0.1,0.1,0,0.2-0.1,0.3v0.8c-0.7-1-1.3-1.9-1.9-2.9
			c0,0,0,0-0.1,0c0.5,1.5,1,3.1,1.7,4.6c0.4,0.8,0.9,1.6,1.4,2.3c0.1,0.1,0.2,0.2,0.3,0.2c0.2,0.1,0.5,0.3,0.7,0.4
			c-0.3,0-0.6-0.2-0.8-0.4c-0.8-0.6-1.4-1.3-1.7-2.2c-0.8-1.7-1.5-3.4-2.3-5.1c0,0.1,0,0.1,0,0.2C37,8,37.1,8.4,37.1,8.8
			C36.7,8.4,36.4,8,36,7.6c0.1,0.7,0.4,1.4,0.5,2.1c-0.2-0.4-0.5-0.7-0.7-1.1c-0.1,0,0,0.1-0.1,0.1c0,0.4,0.1,0.7,0.1,1.1
			c-0.3-0.2-0.6-0.5-0.9-0.7c0.1,0.7,0.2,1.3,0.3,2c-0.4-0.5-0.8-1-1.1-1.4c-0.3,0.7-0.6,1.4-0.9,2.2c-0.1,0.2-0.2,0.3-0.5,0.3
			c-0.8-0.2-1.6-0.3-2.4-0.4c0.4,0.4,0.8,0.8,1.3,1.2c-2.1-0.4-3.6,0.5-4.8,2c-0.6,0.7-1,1.4-1.4,2.2c-0.1,0.1-0.1,0.1-0.1,0.2
			c0.1,0,0.1-0.1,0.2-0.2c0,0,0,0,0.1,0c0.1,0,0,0.1,0,0.1c-0.1,0.2-0.2,0.3-0.2,0.5c0.2-0.1,0.4-0.2,0.6-0.3c0,0,0,0,0,0
			c-0.2,0.3-0.4,0.5-0.6,0.8c0,0,0,0,0,0c0.2,0,0.3-0.2,0.4-0.2c0,0,0.1-0.1,0.1-0.1c0,0.1,0,0.1-0.1,0.2c-0.2,0.2-0.3,0.4-0.5,0.7
			c0.2,0,0.3-0.2,0.5-0.2c-0.2,0.3-0.3,0.5-0.5,0.8c0.3-0.1,0.4-0.3,0.7-0.4v0.9c0,0.1,0,0.1-0.1,0.2c-0.3,0.1-0.5,0.2-0.8,0.3
			c-0.1,0-0.1,0-0.2-0.1c-0.3-0.7-0.6-1.4-0.9-2.1c-0.1-0.1,0-0.2,0-0.3c0.7-1.9,1.4-3.8,2.1-5.7c0-0.1,0.1-0.2,0.2-0.3
			c0.8-0.8,1.6-1.5,2.5-2.2c-0.3-0.1-0.3-0.1-0.9,0.2V8.1c-0.3,0-0.5,0.3-0.7,0.3c0.2-0.9,0.4-1.9,0.5-2.8c0-0.2,0-0.4,0.1-0.6
			c0-0.4,0.1-0.9,0.1-1.3c0.1,0.2,0.1,0.4,0.1,0.5c0,0.2,0,0.3,0.1,0.5c0,0.1,0,0.2,0,0.3c0,0.2,0,0.4,0.1,0.5c0,0,0,0.1,0,0.1
			c0.1,0.3,0.4,0.6,0.8,0.6c-0.1,0.2-0.4,0.4-0.5,0.6c0,0.2,0.1,0.1,0.1,0.1c0.1-0.1,0.2-0.1,0.4-0.2c0,0,0,0,0,0
			c-0.2,0.1-0.3,0.3-0.5,0.4c0,0.1,0,0.1,0.1,0.1C29,7,29.1,7,29.3,6.9c-0.1,0.3-0.4,0.4-0.5,0.7c0.3-0.1,0.6-0.4,0.9-0.5
			C29.7,7.7,29.9,8.3,30,9c0.4-0.2,0.8-0.4,1.2-0.6c0.1,0,0.1-0.1,0.1-0.2c0-0.4,0-0.9,0-1.3c0-0.2,0-0.3,0.2-0.3
			c0.2-0.1,0.4-0.2,0.6-0.3c0.2-0.1,0.2-0.1,0.1-0.3c-0.1-0.3-0.3-0.7-0.4-1c-0.1-0.2-0.1-0.3-0.2-0.5c-0.2-0.5-0.4-1-0.6-1.5
			c-0.1-0.2-0.2-0.5-0.3-0.8c-0.3-0.6-0.5-1.3-0.8-1.9c-0.1-0.2-0.2-0.2-0.3-0.1c-1,0.6-1.6,1.5-1.7,2.6c0,0.3-0.1,0.5,0,0.8
			c0,0,0,0,0,0.1c0,0.2,0,0.2-0.2,0.2C27,4,26.8,4.3,26.7,4.8c-0.1,0.3-0.1,0.5-0.1,0.8c0,0.2,0,0.4-0.1,0.6c0,0,0,0,0,0.1
			c-0.2,0.8-0.5,1.5-0.8,2.3c-0.1,0.3-0.3,0.6-0.2,0.8c0.1,0.2,0.5,0.1,0.7,0.2c0,0,0.1,0,0.2,0.1c-1.5,3.5-2.9,6.9-4.4,10.4
			c0,0,0,0,0,0c0.4-0.3,0.8-0.6,1.3-0.9c1.1,3.1,2.3,6.1,3.4,9.3c0.1-0.4,0.1-0.6,0.2-0.9c0-0.1,0-0.2,0.1-0.3v1.5c0,0,0,0,0.1,0
			c0.1-0.4,0.2-0.8,0.4-1.1c0-0.1,0-0.2,0.1-0.1c0,0,0,0.1,0,0.1c0,0.4,0.1,0.7,0.1,1.1c0,0.1,0.1,0.1,0.1,0
			c0.1-0.2,0.1-0.3,0.2-0.5c0-0.1,0-0.1,0.1-0.2c0,0.1,0,0.1,0,0.2c0,0.3,0,0.6,0.1,0.9c0.1-0.4,0.2-0.7,0.2-1.1
			c0.1,0.5,0.1,0.9,0.2,1.3c0.1-0.4,0.2-0.7,0.3-1.1c0.4,0.2,0.8,0.5,1.1,0.8c0.2,0.2,0.5,0.5,0.7,0.7c0.7,0.7,0.6,1.5,0.6,2.4
			c0,0.1,0,0.1-0.1,0.2c-0.7,0.4-1.3,0.8-2,1.3c0-0.5-0.1-0.9-0.1-1.3c0,0,0,0,0,0c-0.1,0.2-0.2,0.4-0.3,0.7c0-0.2,0-0.3,0-0.4
			c0-0.1,0-0.3,0-0.4c0,0,0,0,0-0.1c0,0,0-0.1,0-0.1c0,0,0,0.1,0,0.1c0,0,0,0,0,0.1c0,0.2-0.1,0.4-0.2,0.6c-0.1-0.2-0.1-0.5-0.2-0.8
			c0,0.1-0.1,0.3-0.1,0.4c0,0.2-0.1,0.2-0.3,0.2c-1.9-0.6-3.2-1.8-3.9-3.6c0,0,0-0.1,0-0.1c0,0,0-0.1-0.1,0c0,0,0,0.1,0,0.1
			c0,0.1,0,0.3-0.1,0.4c0-0.1,0-0.2,0-0.3c0-0.1,0-0.1,0-0.2v-0.4c0,0,0,0,0,0c-0.1,0.2-0.1,0.4-0.2,0.6c0,0,0,0,0,0v-0.7
			c-0.2,0.2-0.2,0.4-0.3,0.5c-0.4-0.7-0.8-1.4-1.2-2.1c-0.3-0.7-0.6-1.5-0.9-2.2c0,0.5-0.1,1-0.1,1.5c0,0.6-0.1,1.2-0.3,1.8
			c-0.1,0.2,0,0.4,0.1,0.6c1,1.3,1.9,2.7,2.9,4.1c0,0.1,0.1,0.1,0.1,0.2c-0.3-0.1-0.5-0.2-0.8-0.4c1.3,1.3,2.2,2.9,3.5,4.2
			c0.8,0.7,1.6,1.3,2.7,1.5c0.1,0,0.2,0,0.3,0c0.1,0,0.2,0,0.4,0c-0.1,0.1-0.1,0.1-0.2,0.1c-2.4,0.3-4-0.6-5-2.8
			c-0.1,0.2-0.1,0.3-0.1,0.5c0,0.1-0.1,0.3-0.2,0.4c-0.1-0.4-0.1-0.8-0.2-1.3c0,0,0,0,0,0c-0.2,0.5-0.4,1-0.7,1.5
			c0,0.1-0.1,0.1-0.1,0c0-0.1,0-0.3,0-0.4c0-0.6-0.1-1.2-0.1-1.9c0,0,0,0-0.1,0c-0.1,0.3-0.3,0.5-0.4,0.8c0-0.4,0-0.8,0-1.2
			c0-0.4-0.1-0.7-0.2-1.2c-0.2,1.1-0.5,2.1-0.7,3.1c2.9,2.5,6.7,4,10.8,4.2c0,0,0,0,0,0c0.1,0,0.2,0,0.3,0c0,0,0.1,0,0.1,0
			c0,0,0.1,0,0.1,0h0c3.8,0,7.3-1.2,10.2-3.3c-0.1-0.9-0.2-1.8-0.4-2.7c-0.1,0.3-0.3,0.5-0.4,0.8c0,0,0,0-0.1,0v-1.1c0,0,0,0-0.1,0
			c-0.1,0.2-0.2,0.5-0.3,0.7c0,0,0,0,0,0v-0.7c-0.1,0.2-0.1,0.3-0.2,0.4c-0.2-0.2-0.2-0.3,0-0.5c0.3-0.3,0.5-0.5,0.7-0.9
			c0.2-0.3,0.4-0.5,0.7-0.8c0,0,0,0-0.1,0c0,0,0,0,0,0c0,0,0,0,0,0c-0.1,0-0.2,0-0.3-0.1l0,0c0,0,0,0,0,0c-0.2,0-0.4,0-0.6,0
			c0.1,0.2,0.1,0.4,0.2,0.6c0.1,0.2,0,0.3-0.2,0.3c-0.3,0-0.6-0.1-0.8-0.1c-0.2,0-0.3,0-0.3,0.2c-0.6,2.8-2,4.8-4.9,5.7
			c-0.9,0.3-1.7,0.4-2.8,0.3c0.6-0.1,1.3-0.3,1.9-0.5c0.8-0.4,1.6-0.9,2.2-1.6c0.1-0.1,0.2-0.1,0.3,0c0.2,0.1,0.4,0.3,0.6,0.3
			c-0.2-0.3-0.4-0.7-0.7-1.1c0.4,0.2,0.7,0.3,1,0.4c0,0,0,0,0,0c-0.3-0.5-0.7-1-1-1.5c0.6,0.1,1.1,0.4,1.7,0.6
			c-0.1-0.3-0.3-0.5-0.4-0.7c0.3,0.1,0.6,0.2,0.9,0.4c-0.1-0.2-0.2-0.3-0.3-0.5c0.2,0,0.4,0.1,0.7,0.1c0-0.1,0-0.2-0.1-0.2
			c-0.3-0.4-0.2-0.8,0-1.2c0.1-0.3,0.2-0.7,0.5-1c0,0,0,0,0-0.1c0.2-0.3,0.2-0.3,0.7-0.1c0,0,0,0,0.1,0c0.2,0.1,0.4,0.1,0.7,0.2
			c-0.2-0.3-0.4-0.6-0.6-1h1.7c-0.5-0.4-0.9-0.7-1.4-1.1c0.4,0.1,0.7,0.2,1.1,0.3c0,0,0,0,0-0.1c-0.2-0.2-0.5-0.4-0.8-0.7
			c0.5-0.5,0.7-1.1,0.9-1.8c0-0.1,0-0.3,0-0.4v-1.8c0,0,0,0,0,0c0,0,0,0,0,0c0,0.1,0,0.2,0.1,0.3c0.2,0.9,0.3,1.8,0.4,2.7
			c0,0.1,0,0.2,0,0.4c0.1,0.3,0.1,0.6,0.1,0.9c0,2.1,0,4.1-0.1,6.2c0,0.1,0,0.1,0,0.2c4.2-3.2,6.9-8.3,6.9-13.9
			C50.5,15.9,47,10.3,41.7,7.2z M33.4,13.5c0.1-0.3,0.4-0.6,0.6-0.9c0,0.1,0,0.2,0,0.2c0.1,0.4,0.2,0.4,0.5,0.2
			c0.6-0.4,1.1-0.8,1.7-1.2c0.2-0.1,0.2-0.1,0.4,0c0.3,0.3,0.7,0.6,1,1c0.1,0.1,0.2,0.1,0.3,0c0.3-0.2,0.7-0.2,1-0.3
			c0.1,0,0.1,0,0.1,0.1c-0.2,0.9,0.2,1.8,0.5,2.6c0,0,0,0.1,0,0.2c-0.3-0.4-0.6-0.5-1.1-0.4c-0.4,0.1-0.6,0.4-0.9,1.3
			c-0.1-0.4-0.2-0.7-0.2-1.1c0-0.4-0.2-0.6-0.6-0.8C35.8,14.1,34.6,13.7,33.4,13.5z M35.4,15.7c-0.1-0.1,0-0.1,0-0.2
			c0-0.3,0.1-0.5,0.1-0.8c0.4,0.2,0.7,0.4,1.2,0.6C36.2,15.4,35.9,15.6,35.4,15.7C35.5,15.7,35.4,15.7,35.4,15.7z M47.4,20.4
			c-0.3,0.6-0.4,1.2-0.8,1.7c0,0,0,0.1,0,0.1c-0.3,1.3-1.1,1.9-2.3,2.3c-0.2,0.1-0.4,0.1-0.6,0.1c-0.4,0-0.5,0.2-0.6,0.5
			c0,0,0,0,0,0.1c-0.5,1.2-1,2.4-1.5,3.7c-0.1,0.2-0.2,0.2-0.3,0.1c-0.1-0.1-0.3-0.2-0.5-0.2c0.2,0.4,0.5,0.8,0.7,1.2H41
			c0.1,0.3,0.3,0.5,0.4,0.8c-1.6-0.4-3-0.2-4.4,0.6c0-0.8,0-1.7,0.1-2.5c0.5,0.2,1.1,0.4,1.7,0.6c-0.3-0.6-0.5-1.1-0.7-1.6
			c0,0,0,0,0-0.1c0.6,0.3,1.2,0.6,1.8,0.9c-0.2-0.4-0.4-0.7-0.6-1.1c0,0,0,0,0-0.1c0.4,0.2,0.8,0.4,1.2,0.7
			c-0.2-0.6-0.4-1.1-0.5-1.6c0.4,0.1,0.7,0.3,1.1,0.4c0-0.3-0.3-0.5-0.3-0.8c0.2,0,0.4,0.1,0.7,0.1c-0.1-0.3-0.2-0.5-0.3-0.8
			c0.2,0.1,0.4,0.2,0.6,0.2c0.1,0.1,0.2,0,0.2-0.1c0.1-0.3,0.1-0.6,0.2-0.9c0-0.2-0.1-0.2-0.2-0.2c-0.7,0-1.5,0-2.2-0.1
			c-1.3-0.1-2.6-0.4-3.7-1.1c-0.1-0.1-0.2-0.1-0.2-0.2c0.1-0.1,0.1,0,0.2,0c1.1,0.5,2.3,0.8,3.4,0.9c1,0.1,1.9,0.1,2.9,0.1
			c1-0.1,1.9-0.3,2.9-0.5c0.3-0.1,0.3-0.3,0.4-0.5c-0.6,0.1-1.2,0.1-1.7,0.1c-0.3,0-0.5,0-0.8,0c-0.3,0-0.6,0.1-0.8,0.3
			c-0.3,0.2-0.6,0.1-0.9,0c-0.2-0.1-0.4-0.3-0.4-0.6c-0.1,0-0.1,0-0.1,0c-0.6,0.2-1.1,0.2-1.6-0.1c-1-0.5-2-1-3-1.5
			c0,0-0.1,0-0.1-0.1c0.6,0,1.1,0.1,1.5,0.3c0.4,0.2,0.8,0.4,1.1,0.6c1,0.5,2.1,0.7,3.3,0.4c1-0.2,1.9-0.6,2.9-1
			c-0.5-0.1-0.9-0.1-1.3-0.2c0-0.1,0.1-0.1,0.2-0.1c0.8-0.2,1.3-0.6,1.7-1.2c0.1-0.2,0.1-0.2-0.1-0.3c-0.9-0.3-1.5-0.9-2-1.8
			c0.3,0,0.7,0,1,0.1c0.1,0,0.2,0,0.2,0c-0.2-0.2-0.5-0.2-0.7-0.3c-0.1,0-0.1,0-0.2-0.1c0,0,0,0,0,0H44c0.1,0,0.1,0,0.2-0.1
			c-0.1,0-0.2-0.1-0.3-0.1c-0.1,0-0.2,0-0.3-0.1c0.2,0,0.3,0,0.4,0c0.2,0,0.5,0,0.7,0c0.1,0,0.1,0,0.2,0c-0.4-0.1-0.7-0.3-1.1-0.4
			c0,0,0,0,0,0c0.3,0,0.6,0.1,0.9,0.1c0,0,0,0,0.1-0.1c-0.1,0-0.2-0.1-0.3-0.1c-0.1,0-0.1,0-0.2-0.1c-0.1,0-0.1,0-0.2-0.1
			c0.1-0.1,0.1,0,0.2,0c0.1,0,0.2,0,0.2,0.1c0.1,0,0.2,0,0.3,0c0.1,0,0.1,0,0.2-0.1c-0.1,0-0.3-0.1-0.4-0.1c-0.1,0-0.1,0-0.3-0.1
			c0.2,0,0.3,0,0.3,0c0.2,0,0.5,0,0.7,0.1c0,0,0.1,0,0.1-0.1c-0.1,0-0.1-0.1-0.2-0.1c-0.1,0-0.1,0-0.2-0.1c0.1,0,0.2,0,0.3,0
			c0.1,0,0.2,0,0.4,0.1c0,0,0,0,0,0c-0.2-0.1-0.4-0.2-0.5-0.3c-0.1,0-0.1-0.1-0.1-0.1c0.1-0.1,0.2,0,0.2,0c0.7,0.1,1.4,0.9,1.6,1.7
			c0.1,0.7,0.1,0.7-0.6,0.8c-0.2,0-0.4,0-0.5,0.1c-0.1,0-0.2,0.1-0.1,0.2c0,0.1,0,0.1,0.1,0.2c0.2,0.6,0.2,0.6,0.8,0.6
			c-0.2,0.5-0.5,1-0.7,1.5c-0.2,0.6-0.6,0.9-1.2,1c-0.2,0-0.3,0.1-0.5,0.2c0,0-0.1,0.1-0.1,0.1c0.1,0,0.1,0,0.2,0
			c0.5,0,1-0.1,1.5-0.1c0.1,0,0.2,0,0.3-0.1c0.1-0.1-0.1-0.2-0.1-0.2c-0.1-0.1,0-0.2,0-0.3c0.3-0.6,0.6-1.3,0.9-1.9
			c0.1-0.2,0.3-0.4,0.6-0.3c0.1,0,0.1,0,0.2-0.1c0-0.1,0.1-0.2,0.1-0.3c0-0.1,0.1-0.2,0.1-0.2c0,0,0,0,0,0c0,0,0,0,0,0v0
			c0-0.1,0-0.2-0.2-0.3c-0.3-0.2-0.3-0.5-0.2-0.9c0.1-0.3,0.1-0.6,0.5-0.6c0.1,0,0.1-0.1,0.1-0.2c0-0.1-0.1-0.1-0.1-0.1
			c-0.5-0.2-1-0.4-1.5-0.7c-0.1,0-0.2-0.1-0.3-0.1c0,0,0.1,0,0.1,0c0.1,0,0.1,0,0.2,0.1c0.5,0.1,1,0.3,1.5,0.5
			c0.1,0,0.2,0.1,0.1,0.2C48,18,48,19.3,47.4,20.4z"/>
		<path fill="#FFFCFC" d="M52.5,22.4c0,10.8-8.8,19.5-19.5,19.5c-10.8,0-19.5-8.8-19.5-19.5c0-8.4,5.4-15.7,12.9-18.4
			c-0.2,0.4-0.4,0.9-0.6,1.3c0,0.1-0.1,0.2,0,0.3c0.1,0.1,0.1,0.1,0.1,0.2c-2.1,0.9-4,2.2-5.7,3.8C16.9,13,15,17.5,15,22.4
			s1.9,9.3,5.3,12.7c0.4,0.4,0.8,0.7,1.2,1.1c0,0,0.1,0.1,0.1,0.1c0,0,0,0,0,0c1.6,1.3,3.4,2.3,5.3,3c0,0,0,0,0,0
			c2,0.7,4,1.1,6.2,1.1c2,0,3.9-0.3,5.7-0.9c0,0,0,0,0,0c1.6-0.5,3.2-1.3,4.6-2.3c0,0,0.1-0.1,0.1-0.1c0,0,0.1,0,0.1-0.1
			c0.8-0.6,1.5-1.2,2.2-1.9c3.4-3.4,5.3-7.9,5.3-12.7S49.2,13,45.7,9.6c-1.2-1.2-2.5-2.2-4-3c0-0.2,0-0.4,0-0.6c0-0.4,0-0.7,0-1.1
			C48.2,8.2,52.5,14.8,52.5,22.4z"/>
		<g>
			<path fill="#FFFCFC" d="M21.3,37.3C21.3,37.3,21.3,37.3,21.3,37.3C21.3,37.3,21.3,37.3,21.3,37.3L21.3,37.3z"/>
			<path fill="#FFFCFC" d="M30.7,5.3c0,0.1,0,0.2,0.1,0.3c0,0.1,0,0.2,0.1,0.3c0.1-0.1,0-0.2,0-0.3C30.9,5.5,30.9,5.4,30.7,5.3
				c0-0.1,0.1-0.2,0-0.2c0,0,0,0,0,0c0,0,0,0,0,0.1C30.7,5.1,30.7,5.2,30.7,5.3z"/>
		</g>
	</g>
</g>
</svg>
