<?xml version="1.0" encoding="utf-8"?>
<!-- Generator: Adobe Illustrator 25.0.1, SVG Export Plug-In . SVG Version: 6.00 Build 0)  -->
<svg version="1.1" id="Layer_1" xmlns="http://www.w3.org/2000/svg" xmlns:xlink="http://www.w3.org/1999/xlink" x="0px" y="0px"
	 viewBox="0 0 226 42" style="enable-background:new 0 0 226 42;" xml:space="preserve">
<style type="text/css">
	.st0{fill:#FFFFFF;}
</style>
<g>
	<path class="st0" d="M225.2,30c-4.3,0-8.6,0-13,0c-0.9,0-1.3-0.3-1.3-1.3c0-5.8,0-11.5,0-17.3c0-0.9,0.3-1.3,1.3-1.3
		c3.8,0,7.6,0,11.4,0c0.6,0,1.2,0,1.2,0.8c0,0.9-0.7,0.8-1.2,0.8c-3.1,0-6.2,0-9.3,0c-1.1,0-1.5,0.3-1.5,1.5c0.1,1.5,0.1,3.1,0,4.6
		c0,1,0.4,1.3,1.4,1.3c2.9,0,5.9,0,8.8,0c0.4,0,0.8-0.1,1.1,0.2c0.3,0.3,0.3,0.6,0.1,1c-0.2,0.5-0.6,0.4-1,0.4c-2.9,0-5.7,0-8.6,0
		c-1.8,0-1.8,0-1.8,1.8c0,1.5,0,3,0,4.5c0,1,0.4,1.3,1.3,1.3c3.7,0,7.4,0,11.1,0C225.2,29,225.2,29.5,225.2,30z"/>
	<path class="st0" d="M0.8,10.3c1.6-0.1,1.6,0,1.6,1.5c0,2.1,0,4.2,0,6.3c0,1,0.3,1.4,1.3,1.4c3.3,0,6.6,0,9.9,0
		c0.9,0,1.2-0.3,1.2-1.2c0-2.3,0-4.5,0-6.8c0-0.6-0.1-1.2,0.8-1.2c0.9,0,0.9,0.7,0.9,1.3c0,5.8,0,11.5,0,17.3c0,0.4,0.1,1-0.5,1.1
		c-0.9,0.2-1.2-0.2-1.2-1c0-2.2,0-4.4,0-6.5c0-1-0.3-1.4-1.3-1.3c-3.2,0-6.5,0-9.7,0c-1,0-1.3,0.3-1.3,1.3c0.1,2,0,4.1,0,6.1
		c0,1.6,0,1.6-1.6,1.5C0.8,23.5,0.8,16.9,0.8,10.3z"/>
	<path class="st0" d="M192.5,20.2c0-2.9,0-5.7,0-8.6c0-1,0.3-1.3,1.3-1.3c2.6,0,5.3,0,7.9,0c3.5,0,5.9,2.4,6.1,6
		c0.1,3-1.5,5.5-5.1,6.2c-0.3,0.1-0.7-0.1-0.8,0.3c-0.1,0.3,0.3,0.5,0.5,0.7c1.7,1.9,3.5,3.8,5.2,5.7c0.2,0.2,0.6,0.4,0.4,0.7
		c-0.2,0.3-0.6,0.1-0.8,0.2c-0.7,0.1-1.2-0.2-1.7-0.7c-1.7-1.9-3.5-3.8-5.3-5.7c-0.6-0.6-1.2-1-2.1-0.9c-1,0.1-1.9,0-2.9,0
		c-0.8,0-1.1,0.3-1.1,1.1c0,1.6,0,3.2,0,4.8c0,0.6,0.2,1.4-0.8,1.4c-1,0-0.8-0.8-0.9-1.4C192.5,25.8,192.5,23,192.5,20.2z
		 M194.2,16.5c0,1.2,0,2.4,0,3.6c0,0.6,0.1,1,0.8,1c2.5-0.1,5,0.2,7.5-0.2c2.3-0.4,3.5-2.1,3.3-5c-0.1-2.1-1.7-3.8-3.8-3.9
		c-2.3-0.1-4.6,0-6.9,0c-0.7,0-1,0.3-1,1C194.2,14.1,194.2,15.3,194.2,16.5z"/>
	<path class="st0" d="M40.1,20.2c0,6-4.2,10.3-10,10.3c-6-0.1-10.1-4.3-10-10.5c0.1-6.4,4-10.1,10-10.1
		C36.1,9.8,40.1,14.1,40.1,20.2z M38.5,20.1c0-5.1-3.5-8.7-8.4-8.6c-4.9,0.1-8.2,3.6-8.3,8.5c0,5,3.5,8.8,8.3,8.8
		C34.9,28.9,38.5,25.2,38.5,20.1z"/>
	<path class="st0" d="M70.4,10c2.5-0.2,4.8,0.5,6.5,2.5c0.3,0.3,0.8,0.7,0.2,1.2c-0.5,0.5-0.9,0.4-1.5-0.1c-2.2-2.2-6.9-2.7-9.6-1
		c-1.1,0.7-1.7,1.7-1.6,3.1c0.1,1.3,1,1.9,2,2.4c1.5,0.6,3.2,0.8,4.8,1.2c1.6,0.3,3.1,0.7,4.6,1.5c2.9,1.6,3.2,6,0.5,8
		c-3.4,2.6-10,2.2-13.1-0.9c-0.3-0.3-0.5-0.7-0.8-1c-0.3-0.4-0.4-0.8,0.1-1.2c0.5-0.3,0.9-0.4,1.3,0.1c2.6,3.2,5.9,3.5,9.6,2.5
		c1.4-0.4,2.6-1.3,2.8-2.9c0.3-1.8-0.5-3.1-2.4-3.8c-1.7-0.6-3.4-0.9-5.1-1.2c-1.3-0.3-2.6-0.6-3.8-1.2c-2.9-1.5-3.2-5.6-0.6-7.5
		C66.2,10.4,68.2,9.9,70.4,10z"/>
	<path class="st0" d="M81.4,20.2c0-2.9,0-5.7,0-8.6c0-1,0.4-1.3,1.3-1.3c3.7,0,7.4,0,11.1,0c0.6,0,1.3-0.2,1.3,0.8
		c0,1-0.8,0.8-1.4,0.8c-3.1,0-6.2,0-9.3,0c-1.1,0-1.5,0.4-1.4,1.5c0.1,1.6,0.1,3.1,0,4.7c0,0.9,0.3,1.2,1.2,1.2c2.8,0,5.6,0,8.4,0
		c0.3,0,0.6,0,0.9,0c0.6,0,1,0.2,1,0.8c0,0.7-0.5,0.8-1,0.8c-2.3,0-4.5,0-6.8,0c-0.8,0-1.7,0-2.5,0c-0.9-0.1-1.2,0.4-1.2,1.2
		c0,1.6,0.1,3.2,0,4.8c-0.1,1.1,0.3,1.6,1.5,1.5c2.9-0.1,5.9,0,8.8,0c0.3,0,0.6,0,0.9,0c0.6,0,1.2,0,1.2,0.9c0,0.8-0.6,0.8-1.1,0.8
		c-2.1,0-4.1,0-6.2,0c-1.8,0-3.5,0-5.3,0c-1.1,0-1.5-0.3-1.5-1.4C81.4,25.8,81.4,23,81.4,20.2z"/>
	<path class="st0" d="M138.7,30.1c-0.6,0.1-1-0.3-1.2-0.8c-0.4-1-0.9-2-1.3-2.9c-0.3-0.7-0.7-1.1-1.6-1c-3.2,0-6.3,0-9.5,0
		c-0.8,0-1.2,0.3-1.5,1c-0.4,1-0.9,2-1.3,3c-0.2,0.4-0.5,0.8-1,0.8c-0.9,0.1-1.1-0.2-0.8-1c2.6-5.9,5.2-11.7,7.9-17.6
		c0.3-0.7,0.6-1.3,1.6-1.2c0.9,0,1.1,0.6,1.4,1.2c2.5,5.6,5.1,11.3,7.6,16.9c0.1,0.2,0.2,0.5,0.3,0.7
		C139.7,29.8,139.5,30.1,138.7,30.1z M129.9,12.1c-1.7,3.8-3.2,7.3-4.7,10.8c-0.3,0.6,0,0.8,0.6,0.8c2.7,0,5.5,0,8.2,0
		c0.7,0,0.9-0.3,0.6-0.9C133.1,19.3,131.6,15.8,129.9,12.1z"/>
	<path class="st0" d="M57.3,17.4c0-2,0-4,0-6c0-0.6,0-1.2,0.9-1.2c0.9,0,1,0.5,1,1.2c0,3.8,0.1,7.6,0,11.4c-0.1,4.5-3.2,7.5-7.6,7.5
		c-4.4,0-7.6-2.9-7.7-7.4c-0.1-3.9,0-7.7,0-11.6c0-0.6,0.1-1.1,0.9-1.1c0.8,0,0.9,0.5,0.9,1.1c0,3.7,0,7.4,0,11.1
		c0,4.3,3.1,6.8,7.3,6c2.4-0.4,4.4-2.8,4.4-5.3C57.4,21.3,57.3,19.4,57.3,17.4C57.3,17.4,57.3,17.4,57.3,17.4z"/>
	<path class="st0" d="M188.2,17.5c0,1.8,0,3.6,0,5.4c-0.1,4.4-3.2,7.4-7.7,7.4c-4.4,0-7.5-3.1-7.5-7.4c0-3.7,0-7.4,0-11.1
		c0-0.2,0-0.3,0-0.5c0-0.6,0.1-1.1,0.9-1c0.7,0,0.8,0.5,0.8,1c0,1.7,0,3.4,0,5.2c0,2,0,4.1,0,6.1c0,3.7,2.3,6.1,5.8,6.1
		c3.6,0,6-2.3,6-6c0.1-3.5,0-7,0-10.4c0-0.3,0-0.7,0-1c0-0.5,0.2-0.9,0.8-0.9c0.7,0,0.9,0.3,0.9,0.9
		C188.2,13.3,188.2,15.4,188.2,17.5z"/>
	<path class="st0" d="M142.5,20.2c0-2.9,0-5.7,0-8.6c0-0.6-0.1-1.3,0.9-1.3c1,0,1,0.6,1,1.3c0,5,0,9.9,0,14.9c0,1.9,0,1.9,2,1.9
		c2.6,0,5.2,0,7.8,0c0.6,0,1.2-0.1,1.2,0.8c0,0.9-0.6,0.8-1.2,0.8c-3.5,0-7,0-10.4,0c-1,0-1.2-0.4-1.2-1.3
		C142.5,25.9,142.5,23,142.5,20.2z"/>
	<path class="st0" d="M158.3,20.2c0-2.9,0-5.7,0-8.6c0-0.7,0-1.3,1-1.3c0.9,0,0.9,0.7,0.9,1.3c0,5.1,0,10.2,0,15.3
		c0,1.6,0,1.6,1.6,1.6c2.7,0,5.4,0,8,0c0.6,0,1.3-0.2,1.4,0.8c0,1-0.8,0.9-1.4,0.9c-3.3,0-6.7,0-10,0c-1.4,0-1.5-0.1-1.5-1.5
		C158.3,25.8,158.3,23,158.3,20.2z"/>
	<path class="st0" d="M117.3,10.3c1,0,1.7,0.3,2.1,1.1c0.2,0.5,0.2,0.9-0.2,1.3c-0.3,0.3-0.6,0.4-0.9,0.2c-0.5-0.3-0.5-0.7-0.4-1.2
		c0.3-0.9-0.3-0.9-0.9-0.7c-0.6,0.2-1.1,0.5-1.4,1.1c-0.5,0.7-0.8,1.5-1,2.3c-0.3,0.9-0.6,1.7,0.9,1.5c0.2,0,0.5,0.1,0.5,0.4
		c0,0.3-0.3,0.4-0.5,0.3c-1.4-0.2-1.7,0.7-2,1.8c-0.6,2.4-1.3,4.7-2,7.1c-0.4,1.4-1.1,2.8-2.2,3.8c-0.8,0.7-1.8,1-2.9,0.9
		c-0.9-0.1-1.5-0.6-1.8-1.4c-0.2-0.5,0-0.9,0.4-1.2c0.3-0.2,0.6-0.3,1-0.1c0.4,0.3,0.5,0.6,0.4,1.1c-0.3,0.9,0.3,1,0.9,0.9
		c1-0.1,1.4-0.9,1.8-1.6c1.5-3.3,2.2-6.9,3.2-10.4c0.2-0.9-0.4-0.7-0.9-0.6c-0.4,0-0.9,0.2-0.9-0.4c0-0.4,0.5-0.5,0.8-0.5
		c1.2,0.2,1.6-0.5,1.9-1.5c0.5-1.5,1.2-3,2.8-3.7C116.4,10.4,116.9,10.2,117.3,10.3z"/>
	<path class="st0" d="M108.5,19.2c0,2.6-2,5.1-4.4,5.5c-1.3,0.2-2.4-0.4-2.9-1.5c-1.1-2.4,0.4-6.3,2.9-7.3
		C106.6,14.8,108.6,16.4,108.5,19.2z M102.5,21.9c0,0.8-0.1,1.7,0.8,2c0.9,0.3,1.5-0.4,2-1.1c1-1.4,1.6-3,1.6-4.8
		c0-0.8-0.1-1.5-0.9-1.8c-0.8-0.3-1.4,0.3-1.8,0.9C103.2,18.6,102.6,20.2,102.5,21.9z"/>
</g>
</svg>
