<?xml version="1.0" encoding="utf-8"?>
<!-- Generator: Adobe Illustrator 25.0.1, SVG Export Plug-In . SVG Version: 6.00 Build 0)  -->
<svg version="1.1" id="Layer_1" xmlns="http://www.w3.org/2000/svg" xmlns:xlink="http://www.w3.org/1999/xlink" x="0px" y="0px"
	 viewBox="0 0 151 49" enable-background="new 0 0 151 49" xml:space="preserve">
<g opacity="0.7">
	<path fill="#FFFCFC" d="M56.6,33.4c0-2.9,0-5.7,0-8.6c0-0.4,0-0.8,0-1.2c0,0,0,0,0,0c0-0.1,0-0.2,0-0.3c0,0,0-0.1,0-0.1
		c0-0.1,0-0.2,0-0.2c0,0,0-0.1,0-0.1c0-0.1,0-0.1,0-0.2c0-0.1,0-0.1,0-0.2c0,0,0-0.1,0-0.1c0-0.1,0-0.1,0-0.2
		c-0.2-2.2-0.8-4.4-1.8-6.4c-0.4-0.8-0.8-1.5-1.2-2.2c0-0.1-0.1-0.1-0.1-0.1c0-0.1-0.1-0.1-0.1-0.2c0-0.1-0.1-0.1-0.1-0.2
		c0-0.1-0.1-0.1-0.1-0.2c-0.1-0.1-0.1-0.1-0.1-0.2c0-0.1-0.1-0.1-0.1-0.1c-0.5-0.7-1-1.3-1.5-1.9c-1.5-1.7-3.2-3-5.1-4.1
		c0,0-0.1,0-0.1-0.1c0,0-0.1-0.1-0.1-0.1c-0.1-0.1-0.2-0.1-0.3-0.2c0,0-0.1,0-0.1-0.1c-0.1-0.1-0.3-0.1-0.4-0.2c0,0,0,0,0,0
		c-0.3-0.2-0.7-0.3-1-0.5c-1.2-0.5-2.3-0.9-3.6-1.2c-0.8-0.2-1.6-0.3-2.5-0.4c-0.7-0.1-1.4-0.1-2-0.1c0,0,0,0,0,0
		c-0.1,0-0.2,0-0.3,0h-0.1c-0.1,0-0.2,0-0.3,0c-0.2,0-0.5,0-0.7,0c-0.2,0-0.4,0-0.4,0c-1.9,0.2-3.8,0.6-5.5,1.2
		c-0.7,0.3-1.3,0.5-2,0.9c-0.1,0-0.2,0.1-0.2,0.1c0,0-0.1,0-0.1,0.1c-0.1,0-0.2,0.1-0.2,0.1c0,0-0.1,0-0.1,0.1
		c-0.1,0.1-0.2,0.1-0.3,0.2h0c-0.5,0.3-1,0.6-1.5,0.9c-0.5,0.3-0.9,0.7-1.4,1.1c-1.4,1.2-2.7,2.5-3.8,4c0,0-0.1,0.1-0.1,0.1
		c-0.1,0.1-0.1,0.2-0.2,0.3c0,0.1-0.1,0.1-0.1,0.2c-0.1,0.1-0.1,0.2-0.2,0.2c0,0.1-0.1,0.1-0.1,0.2c0,0,0,0,0,0.1
		c-0.2,0.3-0.3,0.5-0.5,0.8c-0.9,1.6-1.5,3.3-2,5.1c-0.2,0.9-0.4,1.9-0.5,2.8c0,0,0,0.1,0,0.1c0,0.2,0,0.4-0.1,0.6
		c0,0.1,0,0.2,0,0.3c0,0.1,0,0.1,0,0.2c0,0,0,0.1,0,0.1c0,0.3,0,0.6,0,0.9c0,1.6,0,3.2,0,4.7c0,0.1,0,0.1,0,0.2c0,0,0,0.1,0,0.1
		c0,0.1,0,1.2,0,1.5c0,0.1,0,0.2,0,0.3c0,1,0,2,0,3c0,1.2,0,2.3,0,3.5v2.9c0,0.2,0,0.3,0,0.5c0,0.1,0,0.8,0,1c0,0.4,0,0.8,0,1.2
		c0,0.1,0,0.2,0,0.3c0,0,0,0,0,0v0.8c0,0.3,0.2,0.5,0.5,0.5c1.7,0,3.4,0,5.1,0c2.6,0,5.3,0,7.3,0c7.4,0,14.1,0,20.9,0
		c0.1,0,0.2,0,0.4,0c0.2,0,0.7,0,0.8,0c0.1,0,0.2,0,0.4,0c1.6,0,3.1,0,4.7,0c0.6,0,1.1-0.5,1.1-1.1L56.6,33.4L56.6,33.4z M55.4,24.1
		c0,1.3,0,2.6,0,3.9v1.7c0,0.1,0,0.2,0,0.2c0,0.1,0,0.1,0,0.1v0c0,0,0,0.1,0,0.1l-0.2-0.2c0,0,0,0,0,0c-0.1,0-0.1-0.1-0.1-0.1l0,0
		l0,0c-0.1-0.1-0.2-0.2-0.3-0.3c-0.7-0.6-1.4-1.2-2.1-1.9c-0.2-0.2-0.5-0.4-0.7-0.5c-0.5-0.2-0.9-0.4-1.5-0.4
		c-0.5,0-0.9,0.1-1.3,0.4c-0.2,0.1-0.3,0.2-0.5,0.3c-0.8,0.6-1.6,1.2-2.4,1.9c-0.1,0.1-0.2,0.2-0.4,0.3c-0.2,0.1-0.4,0.1-0.6,0
		c-0.1,0-0.1-0.1-0.2-0.1c-0.2-0.2-0.5-0.5-0.7-0.7c0,0-0.1-0.1-0.1-0.1c0,0,0,0,0,0c1-1.4,1.6-3.1,1.7-5c0,0,0,0,0,0c0,0,0,0,0,0
		c0,0,0,0,0,0c0,0,0,0,0,0c0.1,0,0.2,0,0.3,0c0.3,0,4.4,0,4.4,0h2.7c0.5,0,1,0,1.6,0C55.4,23.6,55.4,23.7,55.4,24.1z M49.6,31.2
		c0.1,0.3,0.2,0.6,0.5,0.8c0.1,0.1,0.3,0.3,0.4,0.4c0.4,0.4,0.4,0.6,0.1,1c-0.1,0.1-0.1,0.2-0.2,0.3c-0.1,0.1-0.1,0.1-0.2,0.2
		C50.1,34,50,34,49.8,33.9c-0.1-0.1-0.2-0.1-0.3-0.2c-0.2-0.2-0.4-0.4-0.7-0.6c-0.6-0.5-1.1-1-1.7-1.5c-0.1-0.1-0.3-0.2-0.4-0.3
		c-0.1-0.1-0.1-0.2-0.2-0.2c0-0.1,0-0.1,0-0.2c0-0.1,0.1-0.1,0.1-0.2c0.1-0.1,0.2-0.2,0.3-0.3c0-0.1,0.4-0.3,0.4-0.3
		c0.3-0.2,0.7-0.4,1-0.6c0.3-0.2,0.6-0.4,0.8-0.7c0.1-0.1,0.2-0.2,0.4-0.3c0,0,0.1,0,0.1,0c0.1,0,0.2,0.1,0.2,0.1
		c0,0.2,0,0.5-0.1,0.7c0,0.4-0.1,0.8-0.1,1.3C49.6,30.7,49.6,31,49.6,31.2z M52.3,14.3C52.3,14.3,52.3,14.3,52.3,14.3L52.3,14.3
		C52.4,14.3,52.4,14.3,52.3,14.3l0.1,0c0,0,0,0,0.1,0c0,0,0,0,0,0c0,0,0,0,0,0c0.1,0.1,0.1,0.2,0.2,0.3c0.6,1,1.1,2,1.5,3
		c0.5,1.2,0.8,2.5,1,3.7c0,0.3,0.1,0.5,0.1,0.8c0,0.1-0.1,0.2-0.2,0.2c-0.2,0-0.3,0-0.5,0c-1.2,0-4.1,0-4.1,0h-4.4c0,0,0,0-0.1,0
		c0,0,0,0,0,0h0c0,0,0,0,0,0c0,0,0,0,0,0c0,0,0,0,0,0c0,0,0,0,0,0c-0.1-1.3-0.5-2.6-1-3.7c0,0,0,0,0,0c0,0,0,0,0-0.1
		c0,0,0.1-0.1,0.1-0.1c0.1-0.1,0.2-0.1,0.3-0.2c2.2-1.3,4.4-2.5,6.5-3.8C52.1,14.4,52.2,14.4,52.3,14.3z M45.2,8.2
		c0.1-0.1,0.1-0.2,0.2-0.4c0.1-0.2,0.2-0.2,0.4-0.1c0.1,0,0.1,0.1,0.2,0.1c2.1,1.3,4,2.9,5.5,4.9c0.1,0.1,0.1,0.2,0.2,0.3
		c0,0,0,0.1,0,0.1c0,0,0,0.1-0.1,0.1c-0.1,0.1-0.2,0.1-0.3,0.2c-2.2,1.3-4.5,2.6-6.7,3.9c-0.1,0.1-0.2,0.1-0.3,0.2c0,0-0.1,0-0.1,0
		c-0.7-1.1-1.6-2-2.7-2.7c0-0.1,0-0.1,0-0.2c0.1-0.1,0.1-0.2,0.2-0.4c0.8-1.4,1.6-2.7,2.3-4.1C44.4,9.6,44.8,8.9,45.2,8.2z
		 M36.6,5.4c0-0.2,0.1-0.3,0.3-0.3c0.6,0,1.3,0.1,1.9,0.2c1.4,0.2,2.8,0.6,4.2,1.1c0.4,0.2,0.8,0.3,1.2,0.5c0.1,0,0.1,0.1,0.2,0.1
		c0,0,0,0.1,0,0.1c0,0,0,0.1-0.1,0.1c-0.1,0.1-0.1,0.2-0.2,0.4c-1.2,2.1-2.4,4.1-3.5,6.2c0,0.1-0.1,0.1-0.1,0.2c0,0-0.1,0.1-0.1,0.1
		c-1.1-0.5-2.4-0.9-3.7-1c0,0,0,0,0,0c0,0,0,0,0,0l0,0c0,0,0,0,0,0c0,0,0,0,0,0c0,0,0,0,0,0c0,0,0,0,0,0c0,0,0,0,0,0
		c0-0.2,0-0.3,0-0.5V9.1h0V5.4z M36,14.5c4.8,0,8.7,3.9,8.7,8.7c0,1.7-0.5,3.2-1.3,4.5c0,0-0.1-0.1-0.1-0.1c0,0,0,0,0,0
		c-0.2-0.1-0.3-0.3-0.5-0.4c-0.9-0.7-1.9-1.4-2.8-2c-0.3-0.3-0.7-0.5-1.1-0.7c-0.7-0.4-1.5-0.5-2.3-0.5c-0.5,0-1,0.2-1.5,0.4
		c-0.4,0.2-0.7,0.4-1,0.7c-0.5,0.4-0.9,0.8-1.3,1.4c-0.3,0.4-0.5,0.7-0.8,1.1c-0.4,0.6-0.7,1.2-1.1,1.8c-0.1,0.1-0.2,0.3-0.3,0.4
		c-0.1,0.1-0.1,0.1-0.2,0.1l0,0c0,0,0,0,0,0c-1.9-1.6-3.1-4-3.1-6.7C27.3,18.4,31.2,14.5,36,14.5z M27.5,7.1L27.5,7.1
		C27.5,7.1,27.5,7.1,27.5,7.1C27.5,7.1,27.5,7.1,27.5,7.1C27.5,7.1,27.5,7.1,27.5,7.1C27.5,7.1,27.6,7.1,27.5,7.1
		C27.6,7.1,27.6,7,27.5,7.1C27.6,7,27.6,7,27.6,7c0,0,0,0,0,0c0,0,0,0,0,0c0,0,0.1,0,0.1,0c1.1-0.5,2.3-1,3.5-1.3
		c0.3-0.1,0.7-0.1,1-0.2c0.1,0,0.2,0,0.3-0.1c0.2-0.1,0.4-0.1,0.6-0.1c0.3,0,0.6,0,0.9-0.1c0.3,0,0.6-0.1,0.9-0.1c0,0,0.1,0,0.1,0
		c0.1,0,0.2,0.1,0.2,0.2c0,0.2,0,0.3,0,0.5v3.4h0v3.7c0,0.1,0,0.1,0,0.2c0,0,0,0,0,0c0,0,0,0,0,0c0,0,0,0,0,0l0,0c0,0,0,0,0,0
		c-1.3,0.1-2.5,0.4-3.6,1c0,0,0,0,0,0c0,0,0,0,0,0c0,0,0,0,0,0c0,0,0,0,0,0c0,0,0,0,0,0c0,0,0,0,0,0c0,0,0,0,0,0c0,0,0,0,0,0
		c0,0,0,0,0,0c-0.1-0.1-0.1-0.2-0.2-0.4c-0.8-1.3-1.5-2.6-2.3-3.9c-0.5-0.8-0.9-1.6-1.4-2.4c0,0,0,0,0-0.1v0c0,0,0,0,0,0
		c0,0,0-0.1,0-0.1l0,0c0,0,0,0,0,0c0,0,0,0,0,0C27.5,7.2,27.5,7.2,27.5,7.1C27.5,7.2,27.5,7.1,27.5,7.1z M20.3,13.3
		C20.3,13.3,20.3,13.3,20.3,13.3L20.3,13.3c0-0.1,0-0.1,0.1-0.2c0,0,0,0,0-0.1c0,0,0,0,0.1-0.1c0-0.1,0.1-0.1,0.1-0.2
		c1.5-2,3.3-3.6,5.4-4.9c0.1,0,0.1-0.1,0.2-0.1c0.2-0.1,0.3-0.1,0.4,0.1c0.1,0.1,0.1,0.2,0.2,0.3c1.2,2,2.4,4,3.5,6.1
		c0.1,0.1,0.2,0.3,0.2,0.4c0,0,0,0,0,0.1c0,0,0,0.1,0,0.1c0,0,0,0,0,0c-1.1,0.7-2,1.7-2.7,2.7c0,0,0,0,0,0c0,0,0,0,0,0
		c0,0,0,0-0.1,0c0,0,0,0,0,0c0,0,0,0,0,0c0,0,0,0,0,0c0,0,0,0-0.1,0c0,0,0,0,0,0c-0.1-0.1-0.2-0.1-0.4-0.2c-2.1-1.2-4.3-2.5-6.4-3.7
		c-0.1-0.1-0.2-0.1-0.3-0.2c0,0,0,0,0,0c0,0,0,0,0,0c0,0,0,0,0,0c0,0,0,0,0,0C20.4,13.4,20.3,13.4,20.3,13.3
		C20.3,13.4,20.3,13.4,20.3,13.3C20.3,13.3,20.3,13.3,20.3,13.3C20.3,13.3,20.3,13.3,20.3,13.3C20.3,13.3,20.3,13.3,20.3,13.3z
		 M16.7,22.3c0.1-0.6,0.2-1.3,0.3-1.9c0.3-1.5,0.8-2.9,1.5-4.3c0.2-0.5,0.5-1,0.7-1.4c0-0.1,0.1-0.2,0.1-0.2c0,0,0.1-0.1,0.1,0
		c0,0,0.1,0,0.1,0c0,0,0,0,0,0c0.1,0,0.2,0.1,0.2,0.1c0.6,0.4,1.3,0.7,1.9,1.1l0,0c0.3,0.2,0.6,0.4,0.9,0.5c1.3,0.7,2.5,1.4,3.8,2.2
		c0.1,0.1,0.3,0.2,0.4,0.2c0,0,0,0,0,0c0,0,0,0,0,0c0,0,0,0,0,0c0,0,0,0,0,0c0,0,0,0,0,0c0,0,0,0,0,0c0,0,0,0,0,0
		c-0.6,1.1-0.9,2.4-1,3.7l0,0c0,0,0,0,0,0c0,0,0,0,0,0h0c0,0,0,0,0,0s0,0,0,0c0,0,0,0,0,0c-0.2,0-0.3,0-0.5,0h-8.6c0,0,0,0-0.1,0
		c0,0,0,0,0,0c0,0,0,0,0,0v0C16.7,22.4,16.7,22.4,16.7,22.3L16.7,22.3z M16.6,24.4v-0.4c0-0.2,0.1-0.3,0.3-0.3H17c0,0,0,0,0.1,0h0.9
		c0.2,0,0.4,0,0.6,0h0.8c0.1,0,0.2,0,0.3,0h0.7c0,0,0.1,0,0.1,0h0.9c0.1,0,0.1,0,0.1,0h3.9c0.2,0,0.4,0,0.6,0c0,0,0.1,0,0.1,0.1
		c0.2,2.5,1.2,4.8,2.9,6.4c0.1,0.1,0.2,0.2,0.3,0.3c0.1,0.1,0.2,0.2,0.3,0.3c0,0,0,0.1-0.1,0.1c-0.2,0.2-0.4,0.4-0.6,0.6
		c-0.2,0.2-0.5,0.2-0.7,0.1c-0.1-0.1-0.2-0.1-0.3-0.2c-0.6-0.4-1.2-0.8-1.8-1.2c-0.3-0.2-0.6-0.5-0.9-0.7c-0.3-0.2-0.6-0.5-0.9-0.7
		c-0.1-0.1-0.2-0.1-0.3-0.2c-0.3-0.2-1.1-0.3-1.2-0.3c0,0-0.1,0-0.1,0c-0.5,0-1,0.2-1.5,0.5c-0.6,0.5-1.2,1.1-1.8,1.7
		c-0.8,0.8-1.6,1.6-2.4,2.4c-0.1,0.1-0.1,0.1-0.2,0.2l0,0l-0.2,0.2v0c0,0,0,0,0-0.1c0,0,0,0,0,0c0,0,0,0,0,0v0c0-0.2,0-0.3,0-0.5
		c0-1.5,0-3,0-4.5C16.6,26.8,16.6,25.6,16.6,24.4z M24.2,34.1c-0.1-0.2-0.1-0.3-0.2-0.5c-0.1-0.3-0.2-0.5-0.3-0.8
		c-0.1-0.3-0.1-0.6,0-0.9c0.2-0.5,0.2-1,0.2-1.5c0-0.1,0-0.3,0-0.4c0,0,0.1-0.1,0.1-0.1c0.1,0,0.1,0,0.1,0c0.1,0,0.1,0.1,0.2,0.1
		c0.2,0.2,0.4,0.4,0.6,0.6c0.6,0.6,1.2,1,1.9,1.4c0.2,0.1,0.3,0.2,0.4,0.2c0.1,0,0.1,0.1,0.2,0.1c0.2,0.1,0.2,0.3,0.1,0.5
		c0,0-0.1,0.1-0.1,0.1c-0.6,0.9-1.3,1.8-1.9,2.8c-0.1,0.2-0.3,0.3-0.5,0.4c-0.7,0.4-1.5,0.8-2.2,1.2c0,0-0.1,0-0.1,0.1
		c-0.2,0.1-0.4,0-0.5-0.3c0-0.1,0-0.2,0-0.3c0.1-0.2,0.2-0.3,0.3-0.4c0.4-0.4,0.8-0.7,1.2-1.1c0.1-0.1,0.3-0.3,0.4-0.4
		C24.2,34.8,24.3,34.4,24.2,34.1z M55.5,43.7c0,0.1-0.1,0.1-0.1,0.1c-0.1,0-0.1,0-0.2,0h-0.5c-4.3,0-8.7,0-13,0H39c-0.2,0-1,0-1.1,0
		c-0.1,0-0.2,0-0.3,0c-2.7,0-5.4,0-8.2,0c-2.8,0-5.5,0-8.3,0c-1.3,0-2.6,0-4,0c-0.1,0-0.3,0-0.4,0c-0.1,0-0.1-0.1-0.1-0.1
		c0-0.1,0-0.2,0-0.4v-1.2c0-1.6,0-3.3,0-4.9c0-0.6,0-1.3,0-1.9c0-0.1,0-0.2,0-0.3c0-0.1,0-0.1,0-0.2c0-0.2,0.1-0.4,0.2-0.5
		c0.1-0.1,0.2-0.2,0.3-0.3c1-0.8,1.9-1.7,2.7-2.6c0.3-0.4,0.7-0.7,1-1.1c0.3-0.3,0.6-0.6,0.9-0.9c0.1-0.1,0.2-0.1,0.3-0.2
		c0.2-0.1,0.3,0,0.4,0.2c0.1,0.4,0.1,0.8,0.2,1.3c0,0.2,0,0.3-0.1,0.5c0,0.1-0.1,0.2-0.1,0.2c-0.2,0.4-0.3,0.8-0.1,1.3
		c0.1,0.2,0.2,0.4,0.3,0.6c0.1,0.2,0.1,0.3,0.2,0.5c0.1,0.2,0.1,0.4-0.1,0.6c-0.1,0.1-0.3,0.3-0.4,0.4c-0.3,0.3-0.7,0.6-1,1
		c-0.1,0.1-0.2,0.2-0.3,0.3c-0.2,0.2-0.3,0.5-0.2,0.9c0.1,0.2,0.1,0.4,0.2,0.6c0,0.1,0.1,0.2,0.1,0.3c0.1,0.2,0,0.3-0.1,0.5
		c-0.1,0.2-0.2,0.3-0.4,0.4c-0.2,0.2-0.4,0.3-0.7,0.3c-0.2,0-0.3,0-0.5,0c-0.3,0-0.6,0-0.9,0c-0.1,0-0.2,0-0.3,0
		c-0.2,0-0.3,0.2-0.4,0.4C18,39.7,18,39.9,17.9,40c0,0.2-0.1,0.5-0.1,0.7c0,0.1,0,0.1,0,0.2c0,0.2,0.2,0.2,0.3,0.2
		c0.1,0,0.1-0.1,0.2-0.1c0.1-0.1,0.1-0.1,0.2-0.2c0.2-0.2,0.5-0.3,0.8-0.4c0.2,0,0.5-0.1,0.7,0c0.4,0,0.7,0,1-0.2
		c0.2-0.1,0.4-0.2,0.5-0.4c0.9-0.9,2-1.5,3.2-2.1c0.7-0.3,1.4-0.8,1.9-1.5c0.1-0.2,0.2-0.3,0.4-0.5c0.6-0.9,1.2-1.8,1.8-2.6
		c0.2-0.3,0.5-0.6,0.7-0.9c0.2-0.2,0.4-0.3,0.5-0.5c0.2-0.1,0.3-0.2,0.5-0.3c0.4-0.3,0.7-0.6,1-0.9c0.3-0.3,0.5-0.6,0.7-0.9
		s0.4-0.7,0.6-1c0.4-0.6,0.8-1.2,1.2-1.8c0.3-0.4,0.7-0.8,1.1-1c0.1-0.1,0.3-0.2,0.4-0.2c0.1,0,0.3,0,0.4,0.2
		c0.1,0.1,0.1,0.2,0.1,0.3c0.1,0.5,0.3,0.9,0.4,1.4c0.2,0.8,0.2,0.7,0,1.6c-0.2,0.7-0.4,1.3-0.5,2c-0.1,0.2-0.1,0.5-0.1,0.7
		c0,0.1,0,0.2,0,0.3c0,0.4,0,0.7-0.1,1.1c0,0.1-0.1,0.2-0.1,0.2c-0.1,0.2-0.2,0.5-0.4,0.7c-0.3,0.5-0.5,0.9-0.8,1.4
		c-0.3,0.5-0.5,0.9-0.6,1.4c0,0.1-0.1,0.3-0.1,0.4c-0.1,0.2-0.2,0.3-0.4,0.4c-0.2,0.1-0.3,0.1-0.5,0.2c-0.8,0.2-1.3,0.6-1.7,1.4
		c-0.1,0.2-0.3,0.5-0.4,0.7c0,0.1-0.1,0.1-0.1,0.2c0,0.1,0,0.3,0.2,0.3c0.1,0,0.1,0.1,0.2,0c0.1,0,0.2-0.1,0.3-0.2
		c0.1-0.1,0.2-0.2,0.3-0.3c0.5-0.5,1.1-0.9,1.8-1.1c0.2-0.1,0.5-0.2,0.7-0.2c0.4-0.1,0.7-0.4,0.8-0.8c0-0.1,0.1-0.2,0.1-0.2
		c0.1-0.2,0.2-0.3,0.4-0.2c0.1,0,0.3,0.1,0.4,0.1c0.7,0.3,1.4,0.5,2,0.8c0.2,0.1,0.4,0.2,0.7,0.2c0.1,0,0.5,0.2,0.6,0.2
		c0.3,0.2,0.6,0.3,1,0.2c0.2,0,0.4-0.1,0.5-0.2c0.3-0.1,0.7-0.3,1-0.4c0.1-0.1,0.3-0.1,0.4-0.2c0.2-0.1,0.4,0,0.5,0.1
		c0.1,0.1,0.2,0.1,0.2,0.2c0.1,0.1,0.2,0.2,0.3,0.3c0.3,0.3,0.7,0.5,1.1,0.5c0.3,0,0.5,0.1,0.8,0.1c0.6,0.1,1.2,0.4,1.8,0.6
		c1,0.4,2,0.9,3,1.3c0.2,0.1,0.5,0.2,0.7,0.3c0.1,0,0.2,0,0.2-0.2c0-0.2-0.1-0.4-0.3-0.5c-1.3-0.7-2.5-1.4-3.8-2
		c-0.4-0.2-0.9-0.4-1.4-0.5c-0.2,0-0.3-0.1-0.4-0.1c-0.5-0.2-1-0.4-1.3-0.8c-0.2-0.2-0.3-0.3-0.5-0.5c-0.1-0.1-0.3-0.2-0.4-0.3
		c-0.1,0-0.3-0.1-0.4,0c-0.2,0.1-0.4,0.1-0.5,0.2c-0.3,0.1-0.6,0.3-0.9,0.4c-0.1,0-0.1,0.1-0.2,0.1c-0.4,0.2-0.9,0.3-1.3,0.1
		c-1.1-0.4-2.1-0.8-3.2-1.2c-0.1,0-0.2-0.1-0.3-0.2c-0.1-0.1-0.2-0.2-0.1-0.4c0-0.1,0.1-0.2,0.1-0.3c0.2-0.5,0.5-0.9,0.7-1.4
		c0-0.1,0.1-0.1,0.1-0.2C36.7,34,36.8,34,37,34c0.1,0,0.1,0,0.1,0c0.4,0.2,0.8,0.4,1.3,0.5c0.2,0.1,0.4,0.2,0.7,0.3
		c0.2,0.1,0.5,0.1,0.7,0.1c0.5-0.1,0.9-0.4,1.2-0.7c0,0,0.1-0.1,0.1-0.1c0.1-0.1,0-0.3-0.1-0.3c-0.1,0-0.1-0.1-0.2-0.1
		c-0.1,0-0.2,0-0.4,0c-0.4,0.1-0.7,0-1-0.1c-0.6-0.2-1.1-0.5-1.7-0.7c-0.1,0-0.2-0.1-0.2-0.1c0,0-0.1,0-0.1,0
		c-0.1-0.1-0.2-0.2-0.2-0.4c0-0.3,0-0.5,0-0.8c0-0.2,0.1-0.4,0.1-0.5l0.3-1.1c0-0.1,0.1-0.1,0.1-0.2c0-0.1,0.1-0.1,0.2,0
		c0.1,0.1,0.1,0.2,0.2,0.2c0.2,0.3,0.5,0.4,0.8,0.4c0.5,0,1,0.1,1.5,0.1c0.1,0,0.1,0,0.2,0c0.2,0,0.4,0,0.6,0c0.1,0,0.1,0,0.1,0
		c0.1,0,0.1-0.1,0.1-0.2c0,0-0.1-0.1-0.1-0.1c-0.1,0-0.1-0.1-0.2-0.1c-0.3-0.2-0.5-0.4-0.8-0.5c-0.3-0.2-0.6-0.3-0.9-0.4
		c-0.4,0-0.7-0.2-0.9-0.5c-0.2-0.3-0.4-0.6-0.5-1c-0.2-0.6-0.3-1.2-0.5-1.9c-0.1-0.2,0-0.4,0.2-0.5c0.1-0.1,0.3-0.1,0.4-0.1
		c0.1,0,0.2,0.1,0.3,0.1c0.7,0.4,1.4,0.8,2,1.3c0.6,0.4,1.1,0.9,1.7,1.3c0.2,0.2,0.4,0.3,0.6,0.5c0.2,0.2,0.4,0.4,0.5,0.6
		c0.1,0.1,0.2,0.3,0.4,0.4c0.2,0.2,0.4,0.5,0.7,0.7c0.5,0.5,1.1,1,1.6,1.5c0.2,0.2,0.4,0.4,0.7,0.6c0.5,0.3,0.9,0.7,1.3,1.1
		c0.2,0.3,0.5,0.5,0.7,0.7c0.7,0.8,1.5,1.6,2.2,2.3c0.2,0.2,0.3,0.3,0.6,0.4c0.2,0.1,0.3,0.1,0.5,0.1h1.5c0,0,0.1,0,0.1,0
		c0.1,0,0.2-0.1,0.2-0.2c0-0.1,0-0.2-0.1-0.2c0,0-0.1-0.1-0.1-0.1c-0.1,0-0.7-0.3-1-0.4c-0.4-0.2-0.7-0.4-1-0.7
		c-0.1-0.1-0.1-0.1-0.2-0.2c-0.1-0.1-0.1-0.2-0.1-0.3c0.1-0.1,0.1-0.2,0.2-0.4c0.3-0.4,0.5-0.9,0.8-1.3c0.1-0.2,0.2-0.4,0.3-0.5
		c0.1-0.2,0-0.3-0.1-0.5c-0.1-0.1-0.2-0.3-0.3-0.4c-0.2-0.2-0.5-0.4-0.7-0.6c-0.1-0.1-0.1-0.1-0.2-0.2c-0.1-0.1-0.2-0.2-0.2-0.4
		c0-0.1,0-0.2,0-0.3c0-0.4,0.1-0.8,0.1-1.2c0-0.3,0.1-0.5,0.1-0.8c0-0.1,0.1-0.2,0.1-0.3c0-0.1,0.1-0.1,0.2-0.1c0.1,0,0.1,0,0.2,0.1
		c0.1,0.1,0.2,0.1,0.2,0.2c0.1,0.1,0.2,0.1,0.2,0.2c0.9,0.9,1.9,1.8,2.9,2.7c0.1,0.1,0.2,0.2,0.3,0.3c0.2,0.1,0.3,0.3,0.3,0.6
		c0,0.1,0,0.2,0,0.2c0,0.2,0,1.7,0,2.1c0,2.9,0,5.8,0,8.7C55.5,43.3,55.5,43.5,55.5,43.7z"/>
	<path fill="#FFFCFC" d="M71.5,13l-3-8.4c-0.1-0.3-0.3-0.5-0.7-0.5h-1.5c-0.3,0-0.5,0.2-0.7,0.5l-3,8.4c-0.1,0.4,0,0.7,0.5,0.7h1.4
		c0.3,0,0.6-0.2,0.7-0.5l0.4-1.2h2.8l0.4,1.2c0.1,0.3,0.3,0.5,0.7,0.5H71C71.5,13.6,71.6,13.4,71.5,13z M66.3,9.9l0.8-2.7L68,9.9
		H66.3z"/>
	<path fill="#FFFCFC" d="M82.1,4.1H81c-0.3,0-0.5,0.1-0.7,0.4l-2.5,5.4l-2.5-5.4c-0.1-0.3-0.4-0.4-0.7-0.4h-1.1
		c-0.4,0-0.6,0.2-0.6,0.6v8.4c0,0.4,0.2,0.6,0.6,0.6h1.3c0.4,0,0.6-0.2,0.6-0.6V9.7l1.5,3.5c0.1,0.3,0.4,0.5,0.7,0.5h0.5
		c0.3,0,0.6-0.2,0.7-0.5l1.5-3.5v3.3c0,0.4,0.2,0.6,0.6,0.6h1.3c0.4,0,0.6-0.2,0.6-0.6V4.6C82.7,4.3,82.5,4.1,82.1,4.1z"/>
	<path fill="#FFFCFC" d="M90.6,6.5c0.4,0,0.6-0.2,0.6-0.6V4.6c0-0.4-0.2-0.6-0.6-0.6h-5.5c-0.4,0-0.6,0.2-0.6,0.6v8.4
		c0,0.4,0.2,0.6,0.6,0.6h5.5c0.4,0,0.6-0.2,0.6-0.6v-1.3c0-0.4-0.2-0.6-0.6-0.6h-3.7V10h2.7c0.4,0,0.6-0.2,0.6-0.6V8.3
		c0-0.4-0.2-0.6-0.6-0.6h-2.7V6.5H90.6z"/>
	<path fill="#FFFCFC" d="M101,13l-1.7-3c0,0,0.1,0,0.2-0.1c0.1,0,0.2-0.1,0.3-0.2c0.7-0.6,1.1-1.5,1.1-2.5c0-0.6-0.1-1.1-0.3-1.5
		c-0.2-0.4-0.4-0.7-0.6-0.9c-0.6-0.5-1.2-0.7-2.1-0.7h-3.9c-0.4,0-0.6,0.2-0.6,0.6v8.4c0,0.4,0.2,0.6,0.6,0.6h1.3
		c0.4,0,0.6-0.2,0.6-0.6v-2.8h1.2l1.5,3c0.2,0.3,0.3,0.5,0.7,0.5h1.4C101,13.6,101.3,13.4,101,13z M97.6,8h-1.8V6.4h1.9
		c0.5,0,0.8,0.3,0.8,0.8C98.5,7.7,98.1,8,97.6,8z"/>
	<path fill="#FFFCFC" d="M104.6,4.1h-1.3c-0.4,0-0.6,0.2-0.6,0.6v8.4c0,0.4,0.2,0.6,0.6,0.6h1.3c0.4,0,0.6-0.2,0.6-0.6V4.6
		C105.2,4.3,105,4.1,104.6,4.1z"/>
	<path fill="#FFFCFC" d="M114.3,10.9c-0.3-0.2-0.5-0.2-0.8,0c-0.4,0.4-1,0.5-1.6,0.5c-0.7,0-1.4-0.3-1.8-0.7
		c-0.5-0.5-0.8-1.1-0.8-1.8c0-0.7,0.3-1.4,0.8-1.8c0.5-0.5,1.1-0.8,1.8-0.8c0.6,0,1.2,0.2,1.6,0.6c0.3,0.2,0.5,0.3,0.8,0l1-0.8
		c0.3-0.2,0.3-0.5,0.1-0.8c-0.9-0.9-2.2-1.5-3.5-1.5c-1.4,0-2.6,0.6-3.6,1.5c-0.9,0.9-1.5,2.2-1.5,3.6c0,1.4,0.6,2.6,1.5,3.6
		c0.9,0.9,2.2,1.5,3.6,1.5c1.3,0,2.5-0.5,3.4-1.4c0.3-0.3,0.3-0.6,0-0.8L114.3,10.9z"/>
	<path fill="#FFFCFC" d="M125.3,13l-3-8.4c-0.1-0.3-0.3-0.5-0.7-0.5h-1.5c-0.3,0-0.5,0.2-0.7,0.5l-3,8.4c-0.1,0.4,0,0.7,0.5,0.7h1.4
		c0.3,0,0.6-0.2,0.7-0.5l0.4-1.2h2.9l0.4,1.2c0.1,0.3,0.3,0.5,0.7,0.5h1.4C125.3,13.6,125.4,13.4,125.3,13z M120.1,9.9l0.8-2.7
		l0.9,2.7H120.1z"/>
	<path fill="#FFFCFC" d="M134,4.1h-1.3c-0.4,0-0.6,0.2-0.6,0.6v4.1l-3-4.3c-0.2-0.2-0.4-0.4-0.7-0.4h-1.1c-0.4,0-0.6,0.2-0.6,0.6
		v8.4c0,0.4,0.2,0.6,0.6,0.6h1.3c0.4,0,0.6-0.2,0.6-0.6V8.9l3,4.4c0.2,0.2,0.4,0.4,0.7,0.4h1.1c0.4,0,0.6-0.2,0.6-0.6V4.6
		C134.6,4.3,134.4,4.1,134,4.1z"/>
	<path fill="#FFFCFC" d="M71.2,19.5C70.3,18.6,69,18,67.6,18c-1.4,0-2.6,0.6-3.6,1.5c-0.9,0.9-1.5,2.2-1.5,3.6
		c0,1.4,0.6,2.6,1.5,3.5c0.9,0.9,2.2,1.5,3.6,1.5c1.4,0,2.6-0.6,3.6-1.5c0.9-0.9,1.5-2.2,1.5-3.5C72.7,21.7,72.1,20.4,71.2,19.5z
		 M69.5,24.9c-0.5,0.5-1.1,0.7-1.8,0.7c-0.7,0-1.4-0.3-1.8-0.7c-0.5-0.5-0.8-1.1-0.8-1.8c0-0.7,0.3-1.4,0.8-1.8
		c0.5-0.5,1.1-0.8,1.8-0.8c0.7,0,1.4,0.3,1.8,0.8c0.5,0.5,0.8,1.1,0.8,1.8C70.2,23.8,69.9,24.4,69.5,24.9z"/>
	<path fill="#FFFCFC" d="M82.5,18.3h-1.3c-0.4,0-0.6,0.2-0.6,0.6v4.5c0,0.7-0.2,1.2-0.6,1.7c-0.4,0.4-0.9,0.7-1.4,0.7
		c-0.6,0-1-0.2-1.4-0.7c-0.4-0.4-0.6-1-0.6-1.7v-4.5c0-0.4-0.2-0.6-0.6-0.6h-1.3c-0.4,0-0.6,0.2-0.6,0.6v4.5c0,1.3,0.5,2.5,1.3,3.3
		c0.8,0.9,1.9,1.4,3.2,1.4c1.3,0,2.4-0.6,3.2-1.5c0.8-0.9,1.2-2.1,1.2-3.3v-4.5C83.1,18.5,82.9,18.3,82.5,18.3z"/>
	<path fill="#FFFCFC" d="M91.7,18.3h-6.4c-0.4,0-0.6,0.2-0.6,0.6v1.3c0,0.4,0.2,0.6,0.6,0.6h2v6.5c0,0.4,0.2,0.6,0.6,0.6h1.3
		c0.4,0,0.6-0.2,0.6-0.6v-6.5h2c0.4,0,0.6-0.2,0.6-0.6v-1.3C92.2,18.5,92,18.3,91.7,18.3z"/>
	<path fill="#FFFCFC" d="M100.9,19.7c-0.9-0.9-2-1.5-3.3-1.5h-3.1c-0.4,0-0.6,0.2-0.6,0.6v8.4c0,0.4,0.2,0.6,0.6,0.6h3
		c1.2,0,2.4-0.5,3.2-1.4c0.8-0.9,1.4-2.1,1.4-3.4C102.3,21.8,101.8,20.7,100.9,19.7z M99.2,24.7c-0.4,0.4-0.9,0.7-1.5,0.7h-1.2v-4.7
		h1.2c0.6,0,1.1,0.3,1.5,0.7c0.4,0.4,0.6,1,0.6,1.6S99.6,24.3,99.2,24.7z"/>
	<path fill="#FFFCFC" d="M112.3,19.5c-0.9-0.9-2.2-1.5-3.6-1.5c-1.4,0-2.6,0.6-3.6,1.5c-0.9,0.9-1.5,2.2-1.5,3.6
		c0,1.4,0.6,2.6,1.5,3.5c0.9,0.9,2.2,1.5,3.6,1.5c1.4,0,2.6-0.6,3.6-1.5c0.9-0.9,1.5-2.2,1.5-3.5C113.8,21.7,113.2,20.4,112.3,19.5z
		 M110.6,24.9c-0.5,0.5-1.1,0.7-1.8,0.7c-0.7,0-1.4-0.3-1.8-0.7c-0.5-0.5-0.8-1.1-0.8-1.8c0-0.7,0.3-1.4,0.8-1.8
		c0.5-0.5,1.1-0.8,1.8-0.8c0.7,0,1.4,0.3,1.8,0.8c0.5,0.5,0.7,1.1,0.7,1.8C111.3,23.8,111,24.4,110.6,24.9z"/>
	<path fill="#FFFCFC" d="M123.7,19.5c-0.9-0.9-2.2-1.5-3.6-1.5c-1.4,0-2.6,0.6-3.6,1.5c-0.9,0.9-1.5,2.2-1.5,3.6
		c0,1.4,0.6,2.6,1.5,3.5c0.9,0.9,2.2,1.5,3.6,1.5c1.4,0,2.6-0.6,3.6-1.5c0.9-0.9,1.5-2.2,1.5-3.5C125.1,21.7,124.6,20.4,123.7,19.5z
		 M121.9,24.9c-0.5,0.5-1.1,0.7-1.8,0.7c-0.7,0-1.4-0.3-1.8-0.7c-0.5-0.5-0.8-1.1-0.8-1.8c0-0.7,0.3-1.4,0.8-1.8
		c0.5-0.5,1.1-0.8,1.8-0.8c0.7,0,1.4,0.3,1.8,0.8c0.5,0.5,0.7,1.1,0.7,1.8C122.7,23.8,122.4,24.4,121.9,24.9z"/>
	<path fill="#FFFCFC" d="M134.3,27.2l-1.7-3c0,0,0.1,0,0.2-0.1c0.1,0,0.2-0.1,0.3-0.2c0.7-0.6,1.1-1.5,1.1-2.5
		c0-0.6-0.1-1.1-0.3-1.5c-0.2-0.4-0.4-0.7-0.6-0.9c-0.6-0.5-1.2-0.7-2.1-0.7h-3.9c-0.4,0-0.6,0.2-0.6,0.6v8.4c0,0.4,0.2,0.6,0.6,0.6
		h1.3c0.4,0,0.6-0.2,0.6-0.6v-2.8h1.2l1.5,3c0.2,0.3,0.3,0.5,0.7,0.5h1.4C134.3,27.9,134.6,27.6,134.3,27.2z M130.9,22.2h-1.8v-1.6
		h1.9c0.5,0,0.8,0.3,0.8,0.8C131.8,21.9,131.4,22.2,130.9,22.2z"/>
	<path fill="#FFFCFC" d="M72,39.2c-0.6-0.8-1.9-1.4-4.4-1.9c-0.5-0.1-0.9-0.2-1.2-0.4c-0.3-0.2-0.4-0.4-0.3-0.7
		c0-0.1,0.2-0.3,0.4-0.5c0.3-0.1,0.6-0.3,1.2-0.3c0.9,0,1.7,0.3,2.3,0.7c0.4,0.2,0.7,0.2,1-0.2l0.9-1.2c0.3-0.4,0.2-0.7-0.2-1
		c-0.4-0.3-0.9-0.5-1.6-0.7c-0.6-0.2-1.4-0.4-2.4-0.4c-1.1,0-2.2,0.3-3,0.7c-0.8,0.5-1.5,1.2-1.7,2c-0.1,0.4-0.2,0.8-0.1,1.3
		c0,0.5,0.2,1,0.5,1.5c0.6,0.9,2.1,1.6,3.9,1.9c0.4,0.1,0.8,0.2,1.1,0.2c0.6,0.2,0.9,0.3,1,0.4c0.1,0.1,0.1,0.1,0.2,0.2
		c0.1,0.1,0.2,0.3,0.1,0.4c0,0.2-0.1,0.4-0.3,0.5c-0.3,0.2-1.1,0.3-2,0.2c-0.9-0.1-1.5-0.3-2.4-0.8c-0.4-0.2-0.7-0.2-1,0.2L63,42.8
		c-0.3,0.4-0.2,0.8,0.2,1c1.6,0.9,3,1.2,4.2,1.2c0.1,0,0.2,0,0.3,0H68c1.5,0,2.7-0.4,3.4-1c0.7-0.6,1.1-1.3,1.2-2.1
		C72.8,41,72.6,40,72,39.2z"/>
	<path fill="#FFFCFC" d="M83.7,41.3c-0.4-0.3-0.6-0.2-1,0c-0.6,0.4-1.2,0.7-1.9,0.7c-0.9,0-1.7-0.4-2.2-0.9
		c-0.6-0.6-0.9-1.4-0.9-2.2s0.4-1.7,0.9-2.2c0.6-0.6,1.4-0.9,2.2-0.9c0.8,0,1.4,0.2,2,0.7c0.4,0.3,0.6,0.4,1,0.1l1.2-1
		c0.4-0.3,0.4-0.7,0.1-1c-1.2-1.1-2.7-1.8-4.3-1.8c-1.7,0-3.2,0.7-4.4,1.8c-1.1,1.1-1.8,2.7-1.8,4.4c0,1.7,0.7,3.2,1.8,4.4
		c1.1,1.1,2.7,1.8,4.4,1.8c1.6,0,3.1-0.6,4.2-1.7c0.4-0.3,0.3-0.7,0-1L83.7,41.3z"/>
	<path fill="#FFFCFC" d="M95.8,33h-1.6c-0.5,0-0.7,0.2-0.7,0.7v3.6h-3.3v-3.6c0-0.5-0.2-0.7-0.7-0.7H88c-0.5,0-0.7,0.2-0.7,0.7V44
		c0,0.5,0.2,0.7,0.7,0.7h1.6c0.5,0,0.7-0.2,0.7-0.7v-3.6h3.3V44c0,0.5,0.2,0.7,0.7,0.7h1.6c0.5,0,0.7-0.2,0.7-0.7V33.7
		C96.5,33.2,96.3,33,95.8,33z"/>
	<path fill="#FFFCFC" d="M109.2,34.5c-1.1-1.1-2.7-1.8-4.4-1.8c-1.7,0-3.2,0.7-4.4,1.8c-1.1,1.1-1.8,2.7-1.8,4.4
		c0,1.7,0.7,3.2,1.8,4.3c1.1,1.1,2.6,1.8,4.4,1.8c1.7,0,3.2-0.7,4.4-1.8c1.1-1.1,1.8-2.6,1.8-4.3C111,37.1,110.3,35.6,109.2,34.5z
		 M107.1,41.1c-0.6,0.6-1.4,0.9-2.2,0.9c-0.9,0-1.7-0.4-2.2-0.9c-0.6-0.6-0.9-1.4-0.9-2.2s0.4-1.7,0.9-2.2c0.6-0.6,1.4-0.9,2.2-0.9
		c0.9,0,1.7,0.4,2.2,0.9c0.6,0.6,0.9,1.4,0.9,2.2S107.6,40.5,107.1,41.1z"/>
	<path fill="#FFFCFC" d="M123.1,34.5c-1.1-1.1-2.7-1.8-4.4-1.8c-1.7,0-3.2,0.7-4.4,1.8c-1.1,1.1-1.8,2.7-1.8,4.4
		c0,1.7,0.7,3.2,1.8,4.3c1.1,1.1,2.7,1.8,4.4,1.8c1.7,0,3.2-0.7,4.4-1.8c1.1-1.1,1.8-2.6,1.8-4.3C124.9,37.1,124.2,35.6,123.1,34.5z
		 M121,41.1c-0.6,0.6-1.4,0.9-2.2,0.9c-0.9,0-1.7-0.4-2.2-0.9c-0.6-0.6-0.9-1.4-0.9-2.2s0.4-1.7,0.9-2.2c0.6-0.6,1.4-0.9,2.2-0.9
		c0.9,0,1.7,0.4,2.2,0.9c0.6,0.6,0.9,1.4,0.9,2.2S121.5,40.5,121,41.1z"/>
	<path fill="#FFFCFC" d="M133.9,41.7h-4.2v-8c0-0.5-0.2-0.7-0.7-0.7h-1.6c-0.5,0-0.7,0.2-0.7,0.7V44c0,0.5,0.2,0.7,0.7,0.7h6.5
		c0.5,0,0.7-0.2,0.7-0.7v-1.6C134.6,42,134.4,41.7,133.9,41.7z"/>
</g>
</svg>
