<svg id="Layer_1" data-name="Layer 1" xmlns="http://www.w3.org/2000/svg" width="39.02mm" height="9.88mm" viewBox="0 0 110.6 28">
  <g>
    <path d="M11.1.7h7L29.2,27H21.4l-1.9-4.7H9.5L7.6,27H0Zm6.4,16.1L14.6,9.4l-3,7.4Z"/>
    <path d="M36.1,14.1h0C36.1,6.4,42.1.4,50.2.4A15.23,15.23,0,0,1,60.8,4.2L56.5,9.3a9.1,9.1,0,0,0-6.3-2.5c-3.8,0-6.7,3.2-6.7,7.2v.1a6.91,6.91,0,0,0,7.1,7.2,7.46,7.46,0,0,0,4.2-1.1V17H49.6V11.7h12V23.5a17.63,17.63,0,0,1-11.4,4C42.2,27.6,36.1,22,36.1,14.1Z"/>
    <path d="M70.7,23.2l4-4.8a13.32,13.32,0,0,0,8.5,3.1c1.9,0,3-.7,3-1.8v-.1c0-1.1-.9-1.7-4.4-2.5-5.6-1.3-9.9-2.8-9.9-8.2V8.8C71.9,3.9,75.7.4,82,.4A16.67,16.67,0,0,1,92.8,3.9L89.2,9a13,13,0,0,0-7.3-2.6c-1.8,0-2.6.7-2.6,1.7v.1c0,1.2.9,1.7,4.5,2.5,6,1.3,9.7,3.2,9.7,8.1V19c0,5.3-4.2,8.5-10.6,8.5A18,18,0,0,1,70.7,23.2Z"/>
    <path d="M103.2,19.8h7.4v7.3h-7.4Z"/>
  </g>
</svg>
